<svg width="32" height="32" viewBox="0 0 32 32" fill="none" xmlns="http://www.w3.org/2000/svg">
<path fill-rule="evenodd" clip-rule="evenodd" d="M18.4381 25.3332C18.0488 25.3332 17.6621 25.1639 17.3981 24.8359L10.9608 16.8359C10.5635 16.3412 10.5688 15.6346 10.9755 15.1466L17.6421 7.14656C18.1128 6.58123 18.9541 6.50523 19.5208 6.9759C20.0861 7.44656 20.1621 8.2879 19.6901 8.85323L13.7235 16.0146L19.4768 23.1639C19.9381 23.7372 19.8475 24.5772 19.2728 25.0386C19.0275 25.2372 18.7315 25.3332 18.4381 25.3332" fill="#100F0D"/>
<mask id="mask0_127_261" style="mask-type:luminance" maskUnits="userSpaceOnUse" x="10" y="6" width="10" height="20">
<path fill-rule="evenodd" clip-rule="evenodd" d="M18.4381 25.3332C18.0488 25.3332 17.6621 25.1639 17.3981 24.8359L10.9608 16.8359C10.5635 16.3412 10.5688 15.6346 10.9755 15.1466L17.6421 7.14656C18.1128 6.58123 18.9541 6.50523 19.5208 6.9759C20.0861 7.44656 20.1621 8.2879 19.6901 8.85323L13.7235 16.0146L19.4768 23.1639C19.9381 23.7372 19.8475 24.5772 19.2728 25.0386C19.0275 25.2372 18.7315 25.3332 18.4381 25.3332" fill="white"/>
</mask>
<g mask="url(#mask0_127_261)">
<rect width="32" height="32" fill="#100F0D"/>
</g>
</svg>
