<?xml version="1.0" encoding="utf-8"?>
<!-- Svg Vector Icons : http://www.onlinewebfonts.com/icon -->
<!DOCTYPE svg PUBLIC "-//W3C//DTD SVG 1.1//EN" "http://www.w3.org/Graphics/SVG/1.1/DTD/svg11.dtd">
<svg version="1.1" xmlns="http://www.w3.org/2000/svg" xmlns:xlink="http://www.w3.org/1999/xlink" x="0px" y="0px" viewBox="0 0 256 256" enable-background="new 0 0 256 256" xml:space="preserve">
<metadata> Svg Vector Icons : http://www.onlinewebfonts.com/icon </metadata>
<g><g><path fill="#000000" d="M111.1,105.5c0,4.4,1.8,8.8,4.9,11.9s7.5,4.9,11.9,4.9c4.4,0,8.8-1.8,11.9-4.9s4.9-7.5,4.9-11.9s-1.8-8.8-4.9-11.9s-7.5-4.9-11.9-4.9c-4.4,0-8.8,1.8-11.9,4.9C112.9,96.7,111.1,101.1,111.1,105.5L111.1,105.5z"/><path fill="#000000" d="M55,105.5c0,4.4,1.8,8.8,4.9,11.9c3.1,3.1,7.5,4.9,11.9,4.9c4.4,0,8.8-1.8,11.9-4.9c3.1-3.1,4.9-7.5,4.9-11.9s-1.8-8.8-4.9-11.9c-3.1-3.1-7.5-4.9-11.9-4.9c-4.4,0-8.8,1.8-11.9,4.9C56.8,96.7,55,101.1,55,105.5L55,105.5z"/><path fill="#000000" d="M167.3,105.5c0,4.4,1.8,8.8,4.9,11.9c3.1,3.1,7.5,4.9,11.9,4.9c4.4,0,8.8-1.8,11.9-4.9c3.1-3.1,4.9-7.5,4.9-11.9s-1.8-8.8-4.9-11.9c-3.1-3.1-7.5-4.9-11.9-4.9c-4.4,0-8.8,1.8-11.9,4.9C169.1,96.7,167.3,101.1,167.3,105.5L167.3,105.5z"/><path fill="#000000" d="M201,10H55c-24.8,0-45,20.1-45,45v101.1c0,24.8,20.1,45,45,45c6.2,0,11.2,5,11.2,11.2v22.5c0,6.2,5,11.2,11.2,11.2c0.7,0,1.4-0.1,2.2-0.2c3.1,0.2,6.3-0.8,8.7-3.2l41.5-41.5h39.3H201c24.8,0,45-20.1,45-45V55C246,30.1,225.8,10,201,10L201,10z M223.5,150.5c0,15.5-12.6,28.1-28.1,28.1H128v0.1h-2.9v0c-2.9,0-5.8,1-7.9,3.3l-28.4,28.4v-20.6c0-6.2-5-11.2-11.2-11.2H60.6c-15.5,0-28.1-12.6-28.1-28.1V60.6c0-15.5,12.6-28.1,28.1-28.1h134.8c15.5,0,28.1,12.6,28.1,28.1V150.5L223.5,150.5z"/></g></g>
</svg>