<?xml version="1.0" encoding="utf-8"?>
<!-- Svg Vector Icons : http://www.onlinewebfonts.com/icon -->
<!DOCTYPE svg PUBLIC "-//W3C//DTD SVG 1.1//EN" "http://www.w3.org/Graphics/SVG/1.1/DTD/svg11.dtd">
<svg version="1.1" xmlns="http://www.w3.org/2000/svg" xmlns:xlink="http://www.w3.org/1999/xlink" x="0px" y="0px" viewBox="0 0 256 256" enable-background="new 0 0 256 256" xml:space="preserve">
<metadata> Svg Vector Icons : http://www.onlinewebfonts.com/icon </metadata>
<g><g><path fill="#000000" d="M241.8,38.9H14.2l-1.8,1.8L10,43.1v169.9l4.2,4.2h227.7l4.2-4.2V43.1C246,43.1,241.9,38.9,241.8,38.9z M229.1,50.5c-11.8,17.5-49.6,68.1-101.4,86C76,118.6,38.2,68,26.4,50.5H229.1L229.1,50.5z M23,59.8c11,15.7,33.7,44.4,65,65.5c-31.8,24.9-54.9,56-65,71V59.8L23,59.8z M26.9,204.8c7.9-12.2,33.1-48.2,68.2-75c9.7,5.9,20.2,11.1,31.3,14.8h0c0.4,0.1,0.8,0.2,1.2,0.2c0.4,0,0.8-0.1,1.2-0.2h0c11.1-3.7,21.6-8.8,31.3-14.8c35.2,26.8,60.3,62.8,68.2,75H26.9L26.9,204.8z M232.4,196.3c-10.1-14.9-33.1-46.1-65-71c31.3-21.1,54-49.8,65-65.5V196.3L232.4,196.3z"/></g></g>
</svg>