<svg width="20" height="20" viewBox="0 0 20 20" fill="none" xmlns="http://www.w3.org/2000/svg">
<path fill-rule="evenodd" clip-rule="evenodd" d="M6.66667 6.66675H13.3333C13.7933 6.66675 14.1667 6.29425 14.1667 5.83341V2.50008C14.1667 2.03925 13.7933 1.66675 13.3333 1.66675H6.66667C6.20667 1.66675 5.83333 2.03925 5.83333 2.50008V5.83341C5.83333 6.29425 6.20667 6.66675 6.66667 6.66675ZM15 5.83342V3.33341C16.3783 3.33341 17.5 4.45508 17.5 5.83342V15.8334C17.5 17.2117 16.3783 18.3334 15 18.3334H5C3.62167 18.3334 2.5 17.2117 2.5 15.8334V5.83342C2.5 4.45508 3.62167 3.33341 5 3.33341V5.83342C5 6.75258 5.7475 7.50008 6.66667 7.50008H13.3333C14.2525 7.50008 15 6.75258 15 5.83342Z" fill="#100F0D"/>
<mask id="mask0_106_387" style="mask-type:luminance" maskUnits="userSpaceOnUse" x="2" y="1" width="16" height="18">
<path fill-rule="evenodd" clip-rule="evenodd" d="M6.66667 6.66675H13.3333C13.7933 6.66675 14.1667 6.29425 14.1667 5.83341V2.50008C14.1667 2.03925 13.7933 1.66675 13.3333 1.66675H6.66667C6.20667 1.66675 5.83333 2.03925 5.83333 2.50008V5.83341C5.83333 6.29425 6.20667 6.66675 6.66667 6.66675ZM15 5.83342V3.33341C16.3783 3.33341 17.5 4.45508 17.5 5.83342V15.8334C17.5 17.2117 16.3783 18.3334 15 18.3334H5C3.62167 18.3334 2.5 17.2117 2.5 15.8334V5.83342C2.5 4.45508 3.62167 3.33341 5 3.33341V5.83342C5 6.75258 5.7475 7.50008 6.66667 7.50008H13.3333C14.2525 7.50008 15 6.75258 15 5.83342Z" fill="white"/>
</mask>
<g mask="url(#mask0_106_387)">
<rect width="20" height="20" fill="#100F0D"/>
</g>
</svg>
