<?xml version="1.0" encoding="utf-8"?>
<!-- Svg Vector Icons : http://www.onlinewebfonts.com/icon -->
<!DOCTYPE svg PUBLIC "-//W3C//DTD SVG 1.1//EN" "http://www.w3.org/Graphics/SVG/1.1/DTD/svg11.dtd">
<svg version="1.1" xmlns="http://www.w3.org/2000/svg" xmlns:xlink="http://www.w3.org/1999/xlink" x="0px" y="0px" viewBox="0 0 256 256" enable-background="new 0 0 256 256" xml:space="preserve">
<metadata> Svg Vector Icons : http://www.onlinewebfonts.com/icon </metadata>
<g><g><g><path fill="#000000" d="M117.6,40.2c-5.4,2.4-5.7,10.3-0.5,13.3c0.7,0.4,12.9,0.6,52.1,0.8l51.2,0.2l2.3,1.2c3,1.4,5.7,4.2,7.1,7.1l1.2,2.3V128v62.9l-1.6,2.9c-1.7,3-3.5,4.7-7,6.6l-2.1,1.1h-62.7H95l-2.8-1.3c-2.5-1.2-6.1-4.7-33.9-32.5c-24.8-24.9-31.4-31.7-32.3-33.5c-0.8-1.8-1.1-3.1-1.1-6c0-6.7-0.6-5.9,20-26.6c10-10,18.5-18.8,18.8-19.4c0.8-1.4,0.7-4.7-0.1-6.4c-1-1.9-3.4-3.6-5.6-4c-3.5-0.6-4.6,0.3-24.4,20.2c-18,18.1-18.5,18.7-20.4,22.5c-4.3,8.9-4.3,17.8,0,26.7l1.9,3.9l33,33c32.9,32.9,33,33,36.9,34.9c7,3.4,3.1,3.3,72.4,3.3c69.1,0,65.2,0.2,72.3-3.3c7.7-3.7,13.8-11.6,15.5-20c1-4.8,1-125.6,0-130.4c-2.3-11-11.6-20.3-22.6-22.6C218.1,39.3,119.8,39.2,117.6,40.2z"/><path fill="#000000" d="M88.1,43.9c-4.7,2-5.8,8.2-2.1,11.8c5.2,5.2,13.6,0.6,12.3-6.7C97.4,44.7,92.2,42,88.1,43.9z"/><path fill="#000000" d="M124.4,88.3c-3,1.8-4.3,4.7-3.6,8.2c0.3,1.5,1.8,3.3,9.9,11.4c11.1,11.2,11.7,12.2,11.8,18c0,6-0.8,7.4-11.7,18.3c-5,5.1-9.4,9.8-9.7,10.3c-1.9,3.8,1.1,9.2,5.6,10c3.4,0.6,4.6-0.2,14.1-9.6c11.8-11.7,14.2-15,15.9-22.7c1.5-6.6,0.6-13-2.5-19.5c-1.8-3.6-2.7-4.7-11.9-14c-5.5-5.5-10.6-10.4-11.4-10.7C128.8,87.2,126.2,87.3,124.4,88.3z"/><path fill="#000000" d="M190.9,88.3c-0.7,0.5-5.9,5.4-11.3,10.9c-9,9.1-10.1,10.5-11.6,13.5c-2.2,4.5-3.1,8.5-3.1,13.4c0,4.9,0.8,8.3,3.3,13.4c1.8,3.7,2.5,4.5,12.4,14.4c10,10,10.5,10.5,12.5,10.7c4.1,0.6,7.7-2,8.5-6.1c0.6-3.3,0.1-4-10-14.2c-10.7-10.8-11.5-12-11.8-17.5c-0.1-2.6,0-3.8,0.8-6c1-2.5,2-3.7,10.6-12.4c10.3-10.4,11.1-11.6,10.4-15.2C200.6,88.7,194.7,86,190.9,88.3z"/></g></g></g>
</svg>