<svg width="24" height="24" viewBox="0 0 24 24" fill="none" xmlns="http://www.w3.org/2000/svg">
<path d="M22.8544 14.6747L21.7294 5.67469C21.6501 5.03983 21.3417 4.45579 20.8621 4.03232C20.3825 3.60884 19.7648 3.37509 19.125 3.375H3C2.50272 3.375 2.02581 3.57254 1.67417 3.92417C1.32254 4.27581 1.125 4.75272 1.125 5.25V13.5C1.125 13.7462 1.1735 13.99 1.26773 14.2175C1.36195 14.445 1.50006 14.6517 1.67417 14.8258C1.84828 14.9999 2.05498 15.138 2.28247 15.2323C2.50995 15.3265 2.75377 15.375 3 15.375H6.80438L10.2441 22.2534C10.3375 22.4402 10.4811 22.5973 10.6588 22.707C10.8364 22.8168 11.0412 22.875 11.25 22.875C12.3436 22.8738 13.3921 22.4388 14.1654 21.6654C14.9388 20.8921 15.3738 19.8436 15.375 18.75V17.625H20.25C20.6222 17.6249 20.99 17.5458 21.3293 17.3927C21.6685 17.2396 21.9713 17.0162 22.2176 16.7372C22.4638 16.4582 22.648 16.13 22.7578 15.7744C22.8676 15.4188 22.9005 15.044 22.8544 14.6747ZM6.375 13.125H3.375V5.625H6.375V13.125ZM20.5312 15.2484C20.496 15.2883 20.4527 15.3202 20.4042 15.342C20.3557 15.3638 20.3032 15.375 20.25 15.375H14.25C13.9516 15.375 13.6655 15.4935 13.4545 15.7045C13.2435 15.9155 13.125 16.2016 13.125 16.5V18.75C13.125 19.1351 13.0064 19.5109 12.7853 19.8262C12.5642 20.1416 12.2514 20.3812 11.8894 20.5125L8.625 13.9847V5.625H19.125C19.2168 5.62428 19.3058 5.65729 19.3749 5.71777C19.444 5.77825 19.4885 5.862 19.5 5.95312L20.625 14.9531C20.6313 15.0062 20.6262 15.06 20.61 15.1109C20.5939 15.1618 20.567 15.2087 20.5312 15.2484Z" fill="#100F0D"/>
</svg>
