<svg xmlns="http://www.w3.org/2000/svg" version="1.1" viewBox="-5.0 -10.0 110.0 135.0">
 <g>
  <path d="m78.125 72.188v-0.3125-25c1.875-1.4062 3.125-3.5938 3.125-6.25s-1.25-4.8438-3.125-6.25v-7.8125c0-12.031-9.8438-21.875-21.875-21.875h-12.5c-12.031 0-21.875 9.8438-21.875 21.875v7.8125c-1.875 1.4062-3.125 3.5938-3.125 6.25s1.25 4.8438 3.125 6.25v25 0.3125c-6.5625 4.8438-10.938 12.656-10.938 21.562 0 0.9375 0.625 1.5625 1.5625 1.5625h75c0.9375 0 1.5625-0.625 1.5625-1.5625 0-8.9062-4.375-16.719-10.938-21.562zm-48.438-36.25c7.6562-0.15625 15.312-2.8125 20.312-7.1875 5.1562 4.6875 12.5 7.3438 20.156 7.3438h0.15625v10.938c0 11.25-9.0625 20.312-20.312 20.312s-20.312-9.0625-20.312-20.312zm29.531 34.375c-0.78125 4.375-4.5312 7.8125-9.2188 7.8125s-8.4375-3.4375-9.2188-7.8125zm14.219-25v-9.375c2.6562 0 4.6875 2.0312 4.6875 4.6875s-2.0312 4.6875-4.6875 4.6875zm-46.875-9.375v9.375c-2.6562 0-4.6875-2.0312-4.6875-4.6875s2.0312-4.6875 4.6875-4.6875z"/>
  <path d="m37.5 45.312c0.9375 0 1.5625-0.625 1.5625-1.5625s0.625-1.5625 1.5625-1.5625 1.5625 0.625 1.5625 1.5625 0.625 1.5625 1.5625 1.5625 1.5625-0.625 1.5625-1.5625c0-2.6562-2.0312-4.6875-4.6875-4.6875s-4.6875 2.0312-4.6875 4.6875c0 0.9375 0.625 1.5625 1.5625 1.5625z"/>
  <path d="m56.25 45.312c0.9375 0 1.5625-0.625 1.5625-1.5625s0.625-1.5625 1.5625-1.5625 1.5625 0.625 1.5625 1.5625 0.625 1.5625 1.5625 1.5625 1.5625-0.625 1.5625-1.5625c0-2.6562-2.0312-4.6875-4.6875-4.6875s-4.6875 2.0312-4.6875 4.6875c0 0.9375 0.625 1.5625 1.5625 1.5625z"/>
  <path d="m42.656 55.156c-0.625 0.625-0.625 1.5625 0 2.1875 1.875 1.875 4.5312 2.8125 7.3438 2.8125s5.4688-0.9375 7.3438-2.8125c0.625-0.625 0.625-1.5625 0-2.1875s-1.5625-0.625-2.1875 0c-2.5 2.5-7.8125 2.5-10.312 0-0.625-0.625-1.5625-0.625-2.1875 0z"/>
 </g>
</svg>