<svg width="60" height="60" viewBox="0 0 60 60" fill="none" xmlns="http://www.w3.org/2000/svg">
<rect width="60" height="60" rx="12" fill="#100F0D"/>
<path d="M40.1939 37.8061C40.3512 37.9629 40.476 38.1492 40.5612 38.3543C40.6464 38.5594 40.6902 38.7793 40.6902 39.0014C40.6902 39.2235 40.6464 39.4434 40.5612 39.6485C40.476 39.8537 40.3512 40.0399 40.1939 40.1967C40.035 40.3542 36.2564 44.0653 30 44.0653C25.2595 44.0653 21.6539 41.61 19.3125 39.3037V41.25C19.3125 41.6975 19.1347 42.1268 18.8182 42.4432C18.5018 42.7597 18.0726 42.9375 17.625 42.9375C17.1774 42.9375 16.7482 42.7597 16.4318 42.4432C16.1153 42.1268 15.9375 41.6975 15.9375 41.25V34.5C15.9375 34.0524 16.1153 33.6232 16.4318 33.3068C16.7482 32.9903 17.1774 32.8125 17.625 32.8125H24.375C24.8226 32.8125 25.2518 32.9903 25.5682 33.3068C25.8847 33.6232 26.0625 34.0524 26.0625 34.5C26.0625 34.9476 25.8847 35.3768 25.5682 35.6932C25.2518 36.0097 24.8226 36.1875 24.375 36.1875H21.0169C22.8591 38.2012 25.95 40.6875 30 40.6875C34.8698 40.6875 37.778 37.8356 37.8061 37.8061C37.9628 37.6492 38.1489 37.5247 38.3538 37.4398C38.5586 37.3549 38.7782 37.3112 39 37.3112C39.2218 37.3112 39.4414 37.3549 39.6462 37.4398C39.8511 37.5247 40.0372 37.6492 40.1939 37.8061ZM42.375 17.0625C41.9274 17.0625 41.4982 17.2403 41.1818 17.5568C40.8653 17.8732 40.6875 18.3024 40.6875 18.75V20.6991C38.3461 18.3928 34.7405 15.9375 30 15.9375C23.7478 15.9375 19.965 19.6486 19.8061 19.8061C19.4891 20.1231 19.311 20.5531 19.311 21.0014C19.311 21.4497 19.4891 21.8797 19.8061 22.1967C20.1231 22.5137 20.5531 22.6918 21.0014 22.6918C21.4497 22.6918 21.8797 22.5137 22.1967 22.1967C22.222 22.1644 25.1302 19.3125 30 19.3125C34.05 19.3125 37.1409 21.7987 38.9831 23.8125H35.625C35.1774 23.8125 34.7482 23.9903 34.4318 24.3068C34.1153 24.6232 33.9375 25.0524 33.9375 25.5C33.9375 25.9476 34.1153 26.3768 34.4318 26.6932C34.7482 27.0097 35.1774 27.1875 35.625 27.1875H42.375C42.8226 27.1875 43.2518 27.0097 43.5682 26.6932C43.8847 26.3768 44.0625 25.9476 44.0625 25.5V18.75C44.0625 18.3024 43.8847 17.8732 43.5682 17.5568C43.2518 17.2403 42.8226 17.0625 42.375 17.0625Z" fill="#FFFBF2"/>
</svg>
