<svg width="24" height="24" viewBox="0 0 24 24" fill="none" xmlns="http://www.w3.org/2000/svg">
<path fill-rule="evenodd" clip-rule="evenodd" d="M16.8887 18.3185C16.7167 17.8855 16.4727 17.5075 16.2587 17.1845C16.1507 17.0225 16.0397 16.8575 15.9427 16.6875C15.5537 16.0115 15.6877 15.7375 16.3187 14.6805L16.4207 14.5075C16.9317 13.6465 16.9597 12.8205 16.9857 12.0925C16.9977 11.7345 17.0097 11.3975 17.0787 11.0805C17.2397 10.3485 18.7867 10.1535 19.7457 10.0385C19.9067 10.6675 19.9997 11.3225 19.9997 12.0005C19.9997 14.5695 18.7777 16.8535 16.8887 18.3185ZM4.9617 15.7995C5.5977 15.9615 6.2867 16.0735 6.9877 16.0735C8.0677 16.0735 9.1707 15.8095 10.1247 15.0625C11.8407 13.7205 11.8407 12.0045 11.8407 10.6245C11.8407 9.73249 11.8407 8.96349 12.2127 8.28049C12.4127 7.91449 12.8387 7.66049 13.3317 7.36549C13.6337 7.18449 13.9467 6.99849 14.2467 6.76249C14.8897 6.25949 15.3677 5.61249 15.6637 4.89649C17.0637 5.62149 18.2237 6.74449 18.9897 8.11949C17.5617 8.31749 15.5347 8.78549 15.1257 10.6525C15.0177 11.1465 15.0007 11.6115 14.9877 12.0225C14.9667 12.6055 14.9507 13.0665 14.7007 13.4885L14.6007 13.6565C13.9537 14.7395 13.2217 15.9675 14.2087 17.6845C14.3277 17.8925 14.4607 18.0925 14.5917 18.2915C14.9357 18.8075 15.1047 19.0925 15.1057 19.3725C14.1507 19.7765 13.1007 20.0005 11.9997 20.0005C8.9627 20.0005 6.3167 18.2985 4.9617 15.7995ZM11.9997 4.00049C12.6157 4.00049 13.2107 4.07649 13.7867 4.20849C13.6177 4.58049 13.3567 4.91949 13.0127 5.18849C12.7947 5.36049 12.5497 5.50349 12.3067 5.64849C11.6557 6.03649 10.9187 6.47649 10.4567 7.32249C9.8407 8.45249 9.8407 9.60649 9.8407 10.6245C9.8407 11.9795 9.7967 12.7805 8.8927 13.4875C7.5237 14.5605 5.4287 13.9615 4.1327 13.4165C4.0507 12.9555 3.9997 12.4835 3.9997 12.0005C3.9997 7.58949 7.5887 4.00049 11.9997 4.00049ZM11.9997 2.00049C6.4857 2.00049 1.9997 6.48649 1.9997 12.0005C1.9997 17.5135 6.4857 22.0005 11.9997 22.0005C17.5137 22.0005 21.9997 17.5135 21.9997 12.0005C21.9997 6.48649 17.5137 2.00049 11.9997 2.00049Z" fill="#100F0D"/>
<mask id="mask0_127_166" style="mask-type:luminance" maskUnits="userSpaceOnUse" x="1" y="2" width="21" height="21">
<path fill-rule="evenodd" clip-rule="evenodd" d="M16.8887 18.3185C16.7167 17.8855 16.4727 17.5075 16.2587 17.1845C16.1507 17.0225 16.0397 16.8575 15.9427 16.6875C15.5537 16.0115 15.6877 15.7375 16.3187 14.6805L16.4207 14.5075C16.9317 13.6465 16.9597 12.8205 16.9857 12.0925C16.9977 11.7345 17.0097 11.3975 17.0787 11.0805C17.2397 10.3485 18.7867 10.1535 19.7457 10.0385C19.9067 10.6675 19.9997 11.3225 19.9997 12.0005C19.9997 14.5695 18.7777 16.8535 16.8887 18.3185ZM4.9617 15.7995C5.5977 15.9615 6.2867 16.0735 6.9877 16.0735C8.0677 16.0735 9.1707 15.8095 10.1247 15.0625C11.8407 13.7205 11.8407 12.0045 11.8407 10.6245C11.8407 9.73249 11.8407 8.96349 12.2127 8.28049C12.4127 7.91449 12.8387 7.66049 13.3317 7.36549C13.6337 7.18449 13.9467 6.99849 14.2467 6.76249C14.8897 6.25949 15.3677 5.61249 15.6637 4.89649C17.0637 5.62149 18.2237 6.74449 18.9897 8.11949C17.5617 8.31749 15.5347 8.78549 15.1257 10.6525C15.0177 11.1465 15.0007 11.6115 14.9877 12.0225C14.9667 12.6055 14.9507 13.0665 14.7007 13.4885L14.6007 13.6565C13.9537 14.7395 13.2217 15.9675 14.2087 17.6845C14.3277 17.8925 14.4607 18.0925 14.5917 18.2915C14.9357 18.8075 15.1047 19.0925 15.1057 19.3725C14.1507 19.7765 13.1007 20.0005 11.9997 20.0005C8.9627 20.0005 6.3167 18.2985 4.9617 15.7995ZM11.9997 4.00049C12.6157 4.00049 13.2107 4.07649 13.7867 4.20849C13.6177 4.58049 13.3567 4.91949 13.0127 5.18849C12.7947 5.36049 12.5497 5.50349 12.3067 5.64849C11.6557 6.03649 10.9187 6.47649 10.4567 7.32249C9.8407 8.45249 9.8407 9.60649 9.8407 10.6245C9.8407 11.9795 9.7967 12.7805 8.8927 13.4875C7.5237 14.5605 5.4287 13.9615 4.1327 13.4165C4.0507 12.9555 3.9997 12.4835 3.9997 12.0005C3.9997 7.58949 7.5887 4.00049 11.9997 4.00049ZM11.9997 2.00049C6.4857 2.00049 1.9997 6.48649 1.9997 12.0005C1.9997 17.5135 6.4857 22.0005 11.9997 22.0005C17.5137 22.0005 21.9997 17.5135 21.9997 12.0005C21.9997 6.48649 17.5137 2.00049 11.9997 2.00049Z" fill="white"/>
</mask>
<g mask="url(#mask0_127_166)">
<rect width="24" height="24" fill="#100F0D"/>
</g>
</svg>
