<svg width="24" height="24" viewBox="0 0 24 24" fill="none" xmlns="http://www.w3.org/2000/svg">
<path d="M22.2188 7.26281C21.9723 6.98366 21.6693 6.76013 21.3299 6.60706C20.9905 6.45399 20.6224 6.37489 20.25 6.375H15.375V5.25C15.3738 4.15636 14.9388 3.10787 14.1654 2.33455C13.3921 1.56124 12.3436 1.12624 11.25 1.125C11.0412 1.12502 10.8364 1.18318 10.6588 1.29296C10.4811 1.40273 10.3375 1.5598 10.2441 1.74656L6.80438 8.625H3C2.50272 8.625 2.02581 8.82254 1.67417 9.17417C1.32254 9.52581 1.125 10.0027 1.125 10.5V18.75C1.125 19.2473 1.32254 19.7242 1.67417 20.0758C2.02581 20.4275 2.50272 20.625 3 20.625H19.125C19.7648 20.6249 20.3825 20.3912 20.8621 19.9677C21.3417 19.5442 21.6501 18.9602 21.7294 18.3253L22.8544 9.32531C22.9007 8.95612 22.8679 8.5813 22.7583 8.22572C22.6487 7.87013 22.4648 7.54191 22.2188 7.26281ZM3.375 10.875H6.375V18.375H3.375V10.875ZM20.625 9.04688L19.5 18.0469C19.4885 18.138 19.444 18.2217 19.3749 18.2822C19.3058 18.3427 19.2168 18.3757 19.125 18.375H8.625V10.0153L11.8894 3.4875C12.2514 3.61882 12.5642 3.85844 12.7853 4.17378C13.0064 4.48912 13.125 4.86489 13.125 5.25V7.5C13.125 7.79837 13.2435 8.08452 13.4545 8.2955C13.6655 8.50647 13.9516 8.625 14.25 8.625H20.25C20.3035 8.62458 20.3564 8.63559 20.4052 8.6573C20.4541 8.679 20.4977 8.7109 20.5332 8.75085C20.5687 8.7908 20.5953 8.83788 20.6111 8.88894C20.627 8.93999 20.6317 8.99384 20.625 9.04688Z" fill="#100F0D"/>
</svg>
