<?xml version="1.0" standalone="no"?>
<!DOCTYPE svg PUBLIC "-//W3C//DTD SVG 20010904//EN"
 "http://www.w3.org/TR/2001/REC-SVG-20010904/DTD/svg10.dtd">
<svg version="1.0" xmlns="http://www.w3.org/2000/svg"
 width="128.000000pt" height="128.000000pt" viewBox="0 0 128.000000 128.000000"
 preserveAspectRatio="xMidYMid meet">

<g transform="translate(0.000000,128.000000) scale(0.100000,-0.100000)"
fill="#000000" stroke="none">
<path d="M582 1263 c-18 -9 -45 -32 -60 -51 l-27 -35 -3 -278 c-3 -336 -9
-323 118 -259 l80 40 238 0 c231 0 240 1 272 23 73 49 75 56 75 276 l0 198
-27 35 c-50 65 -64 68 -365 68 -228 0 -273 -3 -301 -17z m542 -196 c9 -15 7
-22 -13 -38 -21 -17 -40 -19 -225 -19 -166 0 -205 3 -224 16 -12 8 -22 21 -22
28 0 33 22 36 249 34 204 -3 225 -5 235 -21z m0 -150 c9 -15 7 -22 -13 -38
-21 -17 -40 -19 -225 -19 -166 0 -205 3 -224 16 -12 8 -22 21 -22 28 0 33 22
36 249 34 204 -3 225 -5 235 -21z"/>
<path d="M54 1031 c-64 -39 -66 -137 -3 -182 28 -19 29 -24 29 -95 0 -53 4
-74 13 -74 19 0 57 75 57 114 0 27 6 39 29 55 87 62 42 201 -64 201 -16 0 -44
-9 -61 -19z"/>
<path d="M352 811 c-96 -33 -160 -100 -188 -199 -13 -42 -15 -90 -12 -225 3
-163 5 -175 30 -223 35 -67 107 -130 171 -149 72 -21 502 -21 574 0 64 19 136
82 171 149 25 48 27 60 30 219 2 92 1 179 -2 192 l-6 25 -210 0 -210 0 -70
-35 c-95 -48 -149 -45 -192 9 -14 17 -18 42 -18 133 0 61 -3 114 -8 117 -4 2
-31 -4 -60 -13z m127 -295 c18 -21 10 -117 -10 -129 -33 -21 -49 -1 -49 61 0
73 28 105 59 68z m369 2 c7 -7 12 -38 12 -70 0 -45 -4 -60 -16 -65 -31 -12
-49 11 -52 66 -4 69 23 102 56 69z m-103 -253 l0 -30 -105 0 c-93 0 -105 2
-108 18 -9 44 2 48 110 45 l103 -3 0 -30z"/>
<path d="M40 573 l-35 -31 0 -127 0 -127 35 -31 35 -31 3 97 c1 54 1 139 0
190 l-3 91 -35 -31z"/>
<path d="M1200 415 c0 -174 1 -185 18 -176 9 5 26 19 37 31 18 20 20 36 20
145 0 109 -2 125 -20 145 -11 12 -28 26 -37 31 -17 9 -18 -2 -18 -176z"/>
</g>
</svg>
