<svg width="32" height="31" viewBox="0 0 32 31" fill="none" xmlns="http://www.w3.org/2000/svg">
<path d="M25.6766 8.81411C24.0486 8.81411 22.5693 9.43461 21.4485 10.4453C20.3299 12.2259 18.354 13.4129 16.096 13.4129C14.1788 13.4129 12.4645 12.5566 11.3052 11.2094C11.2992 11.2159 11.2931 11.2219 11.2874 11.2287C10.1296 9.7601 8.33878 8.81411 6.3234 8.81411C2.83096 8.81411 0 11.6453 0 15.1375C0 18.63 2.83096 21.4609 6.3234 21.4609C8.2496 21.4609 9.97198 20.5966 11.1315 19.238C11.1615 19.2757 11.1875 19.3162 11.218 19.3531C12.3778 17.9488 14.1321 17.0537 16.096 17.0537C18.0622 17.0537 19.8188 17.9515 20.9784 19.3591C22.1359 20.6466 23.8091 21.4609 25.6766 21.4609C29.1688 21.4609 32 18.63 32 15.1375C32 11.6453 29.1688 8.81411 25.6766 8.81411Z" fill="#100F0D"/>
<path d="M11.4014 4.59872C11.4014 2.05876 13.4602 -6.86646e-05 16.0002 -6.86646e-05C18.5401 -6.86646e-05 20.599 2.05876 20.599 4.59872C20.599 7.13843 18.5401 9.19727 16.0002 9.19727C13.4602 9.19727 11.4014 7.13843 11.4014 4.59872Z" fill="#100F0D"/>
<path d="M11.4014 26.0597C11.4014 23.5197 13.4602 21.4609 16.0002 21.4609C18.5401 21.4609 20.599 23.5197 20.599 26.0597C20.599 28.5994 18.5401 30.6584 16.0002 30.6584C13.4602 30.6584 11.4014 28.5994 11.4014 26.0597Z" fill="#100F0D"/>
</svg>
