<svg xmlns="http://www.w3.org/2000/svg" version="1.1" viewBox="-5.0 -10.0 110.0 135.0">
 <g>
  <path d="m62.5 67.188h-0.78125c6.5625-3.75 11.25-10.781 11.719-18.75 4.375 0 7.8125-3.4375 7.8125-7.8125 0-2.5-1.25-4.8438-3.125-6.25v-7.8125c0-12.031-9.8438-21.875-21.875-21.875h-12.5c-12.031 0-21.875 9.8438-21.875 21.875v7.8125c-1.875 1.4062-3.125 3.5938-3.125 6.25 0 4.375 3.4375 7.8125 7.8125 7.8125h0.15625c0.46875 7.9688 5.1562 15 11.719 18.75h-0.9375c-14.688 0-26.562 11.875-26.562 26.562 0 0.9375 0.625 1.5625 1.5625 1.5625h75c0.9375 0 1.5625-0.625 1.5625-1.5625 0-14.688-11.875-26.562-26.562-26.562zm-3.2812 3.125c-0.78125 4.375-4.5312 7.8125-9.2188 7.8125s-8.4375-3.4375-9.2188-7.8125zm14.219-25v-9.375c2.6562 0 4.6875 2.0312 4.6875 4.6875s-2.0312 4.6875-4.6875 4.6875zm-51.562-4.6875c0-2.6562 2.0312-4.6875 4.6875-4.6875v9.375c-2.6562 0-4.6875-2.0312-4.6875-4.6875zm7.8125 6.25v-10.938c4.6875-0.15625 18.438-1.25 29.062-7.1875 1.4062 2.3438 4.8438 6.5625 11.562 7.1875v10.938c0 11.25-9.0625 20.312-20.312 20.312s-20.312-9.0625-20.312-20.312z"/>
  <path d="m43.75 45.312c0.9375 0 1.5625-0.625 1.5625-1.5625 0-2.6562-2.0312-4.6875-4.6875-4.6875s-4.6875 2.0312-4.6875 4.6875c0 0.9375 0.625 1.5625 1.5625 1.5625s1.5625-0.625 1.5625-1.5625 0.625-1.5625 1.5625-1.5625 1.5625 0.625 1.5625 1.5625 0.625 1.5625 1.5625 1.5625z"/>
  <path d="m56.25 45.312c0.9375 0 1.5625-0.625 1.5625-1.5625s0.625-1.5625 1.5625-1.5625 1.5625 0.625 1.5625 1.5625 0.625 1.5625 1.5625 1.5625 1.5625-0.625 1.5625-1.5625c0-2.6562-2.0312-4.6875-4.6875-4.6875s-4.6875 2.0312-4.6875 4.6875c0 0.9375 0.625 1.5625 1.5625 1.5625z"/>
  <path d="m57.344 57.344c0.625-0.625 0.625-1.5625 0-2.1875s-1.5625-0.625-2.1875 0c-2.5 2.5-7.8125 2.5-10.312 0-0.625-0.625-1.5625-0.625-2.1875 0s-0.625 1.5625 0 2.1875c1.875 1.875 4.5312 2.8125 7.3438 2.8125s5.4688-0.9375 7.3438-2.8125z"/>
 </g>
</svg>