<?xml version="1.0" standalone="no"?>
<!DOCTYPE svg PUBLIC "-//W3C//DTD SVG 20010904//EN"
 "http://www.w3.org/TR/2001/REC-SVG-20010904/DTD/svg10.dtd">
<svg version="1.0" xmlns="http://www.w3.org/2000/svg"
 width="128.000000pt" height="128.000000pt" viewBox="0 0 128.000000 128.000000"
 preserveAspectRatio="xMidYMid meet">

<g transform="translate(0.000000,128.000000) scale(0.100000,-0.100000)"
fill="#000000" stroke="none">
<path d="M497 1186 c-98 -35 -166 -111 -188 -210 -37 -166 101 -336 272 -336
96 0 205 66 252 154 31 59 31 193 0 252 -63 119 -216 182 -336 140z m145 -76
c50 -14 97 -55 119 -105 73 -160 -83 -333 -245 -271 -73 28 -136 115 -136 186
0 68 57 151 125 181 46 21 84 23 137 9z"/>
<path d="M453 575 c-147 -40 -276 -146 -339 -279 -44 -91 -42 -133 6 -181 l30
-30 317 0 c290 0 317 1 327 18 8 12 8 22 0 35 -10 15 -40 17 -314 22 -356 6
-342 1 -295 101 89 188 308 287 514 234 58 -15 72 -16 85 -6 19 16 21 45 4 59
-46 38 -238 53 -335 27z"/>
<path d="M857 423 c-18 -17 -3 -51 40 -95 l47 -48 -48 -49 c-35 -36 -47 -55
-44 -72 6 -44 44 -37 99 17 l49 48 49 -48 c55 -54 93 -61 99 -17 3 17 -9 36
-44 72 l-48 49 48 49 c35 36 47 55 44 72 -6 44 -44 37 -99 -17 l-49 -48 -48
47 c-44 43 -78 58 -95 40z"/>
</g>
</svg>
