<svg width="29" height="22" viewBox="0 0 29 22" fill="none" xmlns="http://www.w3.org/2000/svg">
<path fill-rule="evenodd" clip-rule="evenodd" d="M11.6047 0.680357L26.5789 8.16292C28.9181 9.33183 28.9181 12.668 26.5789 13.8369L11.6047 21.3195C8.94138 22.6503 6.07572 19.9136 7.28505 17.1943L9.46687 12.2881C9.50896 12.1935 9.54619 12.0973 9.57857 11.9999L15 11.9999C15.5522 11.9999 16 11.5522 16 10.9999C16 10.4476 15.5522 9.99992 15 9.99992L9.57857 9.99992C9.54619 9.90254 9.50896 9.80635 9.46687 9.7117L7.28505 4.80558C6.07572 2.08624 8.94139 -0.65047 11.6047 0.680357ZM0.666626 8.33325C0.666626 7.78097 1.11434 7.33325 1.66663 7.33325H4.33329C4.88558 7.33325 5.33329 7.78097 5.33329 8.33325C5.33329 8.88554 4.88558 9.33325 4.33329 9.33325H1.66663C1.11434 9.33325 0.666626 8.88554 0.666626 8.33325ZM1.66663 12.6666C1.11434 12.6666 0.666626 13.1143 0.666626 13.6666C0.666626 14.2189 1.11434 14.6666 1.66663 14.6666H4.33329C4.88558 14.6666 5.33329 14.2189 5.33329 13.6666C5.33329 13.1143 4.88558 12.6666 4.33329 12.6666H1.66663Z" fill="#A6A39D"/>
</svg>
