<svg width="28" height="28" viewBox="0 0 28 28" fill="none" xmlns="http://www.w3.org/2000/svg">
<path fill-rule="evenodd" clip-rule="evenodd" d="M27.3333 14.0001C27.3333 18.0179 25.5562 21.6207 22.7451 24.0652C20.404 26.1009 17.3459 27.3334 14 27.3334C10.654 27.3334 7.59588 26.1009 5.25485 24.0652C2.44376 21.6207 0.666626 18.0179 0.666626 14.0001C0.666626 6.63628 6.63616 0.666748 14 0.666748C21.3638 0.666748 27.3333 6.63628 27.3333 14.0001ZM18 10.0001C18 7.79094 16.2091 6.00008 14 6.00008C11.7908 6.00008 9.99996 7.79094 9.99996 10.0001C9.99996 12.2092 11.7908 14.0001 14 14.0001C16.2091 14.0001 18 12.2092 18 10.0001ZM14 16.6667C16.2836 16.6667 17.7853 17.8889 18.8442 19.2474C19.6343 20.2609 19.3623 21.7477 18.2162 22.329C16.9498 22.9714 15.5172 23.3334 14 23.3334C12.4828 23.3334 11.0501 22.9714 9.78368 22.329C8.63758 21.7477 8.36565 20.2609 9.1557 19.2474C10.2146 17.8889 11.7163 16.6667 14 16.6667Z" fill="#100F0D"/>
</svg>
