<svg width="187" height="153" viewBox="0 0 187 153" fill="none" xmlns="http://www.w3.org/2000/svg">
<path d="M151.836 71.0687C153.012 70.3592 154.082 69.4438 154.729 68.2424C155.722 66.4 155.571 64.1479 155.077 62.1134C153.47 55.5141 148.553 50.0398 142.653 46.6726C136.969 43.4268 130.428 41.9686 123.904 41.3433C122.543 39.6264 120.883 38.2406 118.808 37.4978L114.825 36.6236C110.851 36.0467 106.843 35.7344 102.828 35.6887C100.097 40.0458 98.4099 45.034 97.3084 50.0751C96.6459 53.1053 96.1774 56.2138 96.4518 59.3028C96.7262 62.3918 97.7944 65.4846 99.8897 67.772C102.612 70.7453 106.83 72.0585 110.866 71.888C114.901 71.7174 118.759 70.1847 122.273 68.2071C122.769 67.9288 123.329 67.6289 123.88 67.772C124.315 67.8837 124.631 68.2443 124.929 68.5795C126.595 70.4351 128.55 72.009 130.719 73.2404C131.065 71.7641 131.299 70.2637 131.418 68.752C132.159 69.2733 132.92 69.7672 133.711 70.22C139.215 73.3658 146.42 74.3674 151.836 71.0687Z" fill="#AFAA96"/>
<path d="M65.864 53.264C67.4614 49.5028 69.2784 45.6455 72.136 42.7937C64.6681 44.2766 57.6618 47.5201 51.6991 52.2546C48.6298 54.6987 45.7819 57.6544 44.4883 61.3569C44.1766 62.2487 43.961 63.2267 44.2413 64.1283C44.5216 65.0299 45.2213 65.6826 45.9759 66.2137C49.6999 68.8323 54.8273 68.6677 59.0178 66.9037C60.0532 66.4649 61.0537 65.9479 62.0107 65.3572C62.6967 61.2275 64.2216 57.1037 65.864 53.264Z" fill="#AFAA96"/>
<path d="M115.019 65.9727C115.858 66.6884 116.381 67.7074 116.471 68.8069C116.566 69.9392 116.276 71.0704 115.648 72.0174C114.256 74.1734 111.728 75.1769 109.27 75.5022C106.499 75.8688 103.643 75.612 100.927 75.0024C99.5344 74.6861 98.1641 74.2802 96.8242 73.7872C96.1716 73.5481 95.5346 73.2737 94.8858 73.0209C94.6054 72.894 94.2939 72.8524 93.9901 72.9013C93.6777 72.999 93.3831 73.1466 93.1179 73.3384C91.8478 74.0969 90.4209 74.5379 88.9803 74.8456C88.2551 75.0024 87.5201 75.124 86.7871 75.2376C86.4588 75.3022 86.127 75.3473 85.7934 75.3729C85.5974 75.3729 85.221 75.3886 85.1289 75.1573C85.0953 75.0506 85.0029 74.9731 84.892 74.9584C84.7811 74.9437 84.6718 74.9945 84.6115 75.0887C84.3351 75.5591 83.6432 75.5689 83.165 75.61C82.5375 75.6672 81.9075 75.6901 81.2775 75.6786C80.0082 75.6745 78.7504 75.4366 77.5672 74.977C75.5837 74.1655 73.8138 72.3055 73.7237 70.077C73.6629 68.6207 74.3646 67.2898 75.0957 66.0766C75.1639 65.9424 75.1157 65.7783 74.9857 65.7024C74.8557 65.6264 74.689 65.6651 74.6057 65.7904C73.8785 67.0096 73.1945 68.3384 73.1612 69.7888C73.158 70.9673 73.537 72.1151 74.2411 73.0601C75.8091 75.2396 78.4218 76.1275 81.0227 76.2294C81.8247 76.2572 82.6276 76.229 83.4257 76.1451C84.0568 76.0824 84.7546 75.9628 85.1034 75.3611L84.586 75.2945C84.7996 75.8217 85.3347 75.955 85.86 75.9217C86.5353 75.8573 87.2066 75.7566 87.871 75.6198C89.2495 75.4123 90.6013 75.0555 91.9027 74.5556C92.5443 74.2779 93.1664 73.957 93.7647 73.5952C94.0611 73.4097 94.4331 73.3933 94.7447 73.552C95.0798 73.6853 95.4091 73.8304 95.7462 73.9636C97.157 74.5255 98.6034 74.9937 100.076 75.365C102.924 76.0785 105.913 76.4097 108.843 76.1059C111.493 75.8296 114.184 74.9044 115.848 72.7112C116.675 71.6567 117.102 70.344 117.055 69.0048C116.989 67.6975 116.444 66.4039 115.423 65.5592C115.144 65.3279 114.741 65.7258 115.031 65.9512L115.019 65.9727Z" fill="black"/>
<path d="M102.093 58.9187C101.656 59.0265 101.215 58.6639 101.072 58.2386C100.928 57.8133 101.001 57.3468 101.072 56.9038C101.217 56.0532 101.375 55.1692 101.881 54.4695C102.159 54.0775 102.598 53.7541 103.067 53.8208C103.721 53.9148 104.019 54.6753 104.164 55.3202C104.45 56.6042 104.625 57.9105 104.688 59.2245C104.752 60.5965 104.688 61.99 104.296 63.3032C104.155 63.7638 103.937 64.2519 103.502 64.4577C103.022 64.685 102.424 64.4694 102.052 64.0892C101.679 63.709 101.481 63.1974 101.293 62.6996C101.038 62.0292 100.779 61.3276 100.881 60.6141C100.983 59.9007 101.589 59.2147 102.302 59.2833" fill="black"/>
<path d="M102.016 58.6462C101.675 58.7108 101.399 58.3718 101.319 58.0758C101.207 57.6681 101.307 57.2252 101.377 56.8194C101.505 56.0923 101.648 55.3377 102.063 54.7124C102.242 54.442 102.518 54.1519 102.847 54.1009C103.133 54.0778 103.406 54.2264 103.541 54.4792C103.933 55.079 104.006 55.9061 104.129 56.594C104.407 58.262 104.547 60.0103 104.343 61.69C104.292 62.1181 104.21 62.5419 104.098 62.9582C104.026 63.2974 103.893 63.6209 103.706 63.9127C103.245 64.5438 102.444 64.1969 102.065 63.6657C101.839 63.3132 101.659 62.9331 101.53 62.5348C101.345 62.1027 101.217 61.648 101.15 61.1824C101.081 60.4748 101.44 59.5066 102.299 59.5595C102.663 59.583 102.661 59.0166 102.299 58.995C101.458 58.9402 100.766 59.6791 100.617 60.465C100.421 61.445 100.864 62.478 101.252 63.358C101.599 64.142 102.281 64.926 103.228 64.8162C104.174 64.7065 104.492 63.7167 104.686 62.9327C105.193 60.8727 105.027 58.6501 104.686 56.5764C104.549 55.7316 104.455 54.6909 103.89 54.0029C103.326 53.315 102.385 53.462 101.816 54.0872C101.097 54.8712 100.909 56.0276 100.754 57.0448C100.674 57.574 100.631 58.164 100.94 58.6305C101.19 59.0498 101.673 59.2713 102.153 59.1871C102.51 59.1185 102.349 58.5736 102.003 58.6403L102.016 58.6462Z" fill="black"/>
<path d="M83.9843 58.9187C83.5472 59.0265 83.1062 58.6639 82.9631 58.2386C82.8201 57.8133 82.8926 57.3468 82.9631 56.9038C83.1082 56.0532 83.2669 55.1692 83.7726 54.4695C84.0509 54.0775 84.49 53.7541 84.9584 53.8208C85.6131 53.9148 85.9129 54.6753 86.056 55.3202C86.3418 56.6042 86.5169 57.9105 86.5793 59.2245C86.646 60.5965 86.5793 61.99 86.1873 63.3032C86.0482 63.7638 85.8306 64.2519 85.4033 64.4577C84.9212 64.685 84.3253 64.4694 83.9529 64.0892C83.5805 63.709 83.3806 63.1974 83.1925 62.6996C82.9377 62.0292 82.6789 61.3276 82.7828 60.6141C82.8867 59.9007 83.4884 59.2147 84.2019 59.2833" fill="black"/>
<path d="M83.9078 58.6462C83.5668 58.7108 83.2904 58.3718 83.2101 58.0758C83.0983 57.6681 83.1983 57.2252 83.2689 56.8194C83.3963 56.0923 83.5413 55.3377 83.9549 54.7124C84.1352 54.442 84.4115 54.1519 84.7487 54.1009C85.0346 54.0778 85.307 54.2264 85.4425 54.4792C85.8345 55.079 85.907 55.9061 86.0305 56.594C86.3425 58.274 86.4151 59.9897 86.2461 61.69C86.194 62.1179 86.1121 62.5417 86.0011 62.9582C85.9292 63.2974 85.7964 63.6208 85.6091 63.9127C85.1485 64.5438 84.3469 64.1969 83.9705 63.6657C83.7439 63.3133 83.5634 62.9332 83.4335 62.5348C83.2487 62.1024 83.1209 61.6478 83.0533 61.1824C82.9847 60.4748 83.3453 59.5066 84.2018 59.5595C84.5664 59.583 84.5644 59.0166 84.2018 58.995C83.3629 58.9402 82.6711 59.6791 82.5201 60.465C82.3339 61.445 82.7671 62.478 83.1571 63.358C83.5021 64.142 84.1842 64.926 85.1309 64.8162C86.0775 64.7065 86.397 63.7167 86.5891 62.9327C87.0987 60.8727 86.9321 58.6501 86.5891 56.5764C86.4539 55.7316 86.3578 54.6909 85.7933 54.0029C85.2289 53.315 84.2881 53.462 83.7197 54.0872C83.0023 54.8712 82.8141 56.0276 82.6573 57.0448C82.577 57.574 82.5339 58.164 82.8435 58.6305C83.0933 59.0498 83.576 59.2713 84.0568 59.1871C84.4155 59.1185 84.2626 58.5736 83.9059 58.6403L83.9078 58.6462Z" fill="black"/>
<path d="M95.9755 92.3465C94.382 92.2407 92.7905 92.0976 91.2049 91.9349C87.2692 91.5429 83.3021 91.0137 79.5017 89.9573C73.2767 109.075 72.5065 133.34 74.9937 146.209C75.0878 146.697 75.1897 147.223 74.9741 147.673C74.6762 148.314 73.8647 148.581 73.5335 149.206C73.1415 149.959 73.6374 150.939 74.3841 151.352C75.1309 151.766 76.0305 151.764 76.8831 151.744C80.7561 151.653 84.6206 151.392 88.4765 150.96C89.5722 150.839 90.7149 150.686 91.6223 150.059C93.6549 148.648 93.5706 145.668 93.2668 143.21C91.148 126.147 89.139 108.054 95.9755 92.3465Z" fill="#AFAA96"/>
<path d="M114.76 90.4707C113.171 91.0247 111.542 91.4591 109.888 91.7702C106.222 92.4621 102.491 92.611 98.7568 92.4836C92.4416 111.268 95.7168 133.561 98.155 146.203C98.2491 146.691 98.351 147.217 98.1354 147.667C97.8375 148.308 97.0241 148.575 96.6948 149.2C96.3028 149.953 96.7987 150.933 97.5455 151.346C98.2922 151.76 99.1919 151.758 100.044 151.738C103.917 151.647 107.782 151.386 111.638 150.954C112.734 150.833 113.876 150.68 114.784 150.053C116.816 148.642 116.732 145.662 116.428 143.204C114.472 127.352 110.003 106.172 114.76 90.4707V90.4707Z" fill="#AFAA96"/>
<path d="M95.9755 92.072C91.6635 91.7858 87.3319 91.3625 83.0963 90.5236C81.9203 90.2884 80.7443 90.0159 79.5781 89.6945C79.4281 89.6552 79.2738 89.7419 79.2293 89.8905C77.8103 94.3124 76.6752 98.8205 75.8306 103.387C74.9682 107.968 74.3489 112.599 73.9412 117.238C73.559 121.627 73.3649 126.033 73.3904 130.437C73.3942 134.252 73.6115 138.065 74.0411 141.856C74.1365 142.667 74.2469 143.478 74.3724 144.288C74.4978 145.1 74.6997 145.911 74.7918 146.727C74.8445 147.018 74.8083 147.318 74.6879 147.589C74.5587 147.799 74.3896 147.981 74.1901 148.126C73.8334 148.42 73.4453 148.694 73.2454 149.126C72.824 150.027 73.3983 151.086 74.1999 151.562C75.2269 152.166 76.5343 152.026 77.673 151.993C79.0777 151.95 80.483 151.885 81.889 151.797C83.2727 151.713 84.6552 151.608 86.0363 151.48C87.3143 151.362 88.6255 151.284 89.8858 151.031C90.9265 150.819 91.9105 150.37 92.5847 149.527C93.1475 148.78 93.5001 147.895 93.6059 146.966C93.9155 144.81 93.4687 142.605 93.2139 140.47C92.6082 135.455 92.0555 130.429 91.7635 125.378C91.4714 120.38 91.4322 115.355 91.883 110.365C92.3279 105.431 93.2687 100.531 94.9034 95.8489C95.3032 94.7056 95.7429 93.5792 96.2225 92.4699C96.3655 92.1406 95.8795 91.8505 95.7344 92.1857C93.8224 96.6634 92.5045 101.372 91.8144 106.192C91.0951 111.017 90.8971 115.908 91.0089 120.782C91.1225 125.78 91.5537 130.766 92.0986 135.735C92.3691 138.187 92.667 140.635 92.9689 143.087C93.1923 144.906 93.4177 147.06 92.4553 148.72C91.9065 149.667 90.9893 150.192 89.9426 150.435C88.6941 150.723 87.375 150.784 86.101 150.901C83.357 151.156 80.6098 151.326 77.8592 151.411C76.7655 151.444 75.3367 151.662 74.3802 150.995C73.9556 150.714 73.6922 150.246 73.6727 149.737C73.6883 149.226 74.098 148.916 74.4567 148.622C74.8153 148.328 75.176 148.001 75.3093 147.526C75.4543 147.011 75.323 146.464 75.2269 145.958C75.0858 145.215 74.9623 144.469 74.8506 143.72C74.3491 140.147 74.0624 136.547 73.9921 132.94C73.8824 128.716 73.9921 124.485 74.2685 120.269C74.5743 115.682 75.0897 111.107 75.8365 106.572C76.5659 102.052 77.5587 97.5793 78.8098 93.1755C79.1117 92.1197 79.4325 91.0691 79.7722 90.0238L79.4253 90.2198C83.5863 91.3703 87.8905 91.8917 92.179 92.3052C93.4412 92.4267 94.7074 92.5345 95.9735 92.6188C96.3381 92.66 96.3361 92.0857 95.9755 92.072Z" fill="black"/>
<path d="M114.684 90.1984C110.711 91.5704 106.524 92.1427 102.336 92.2289C101.146 92.2544 99.9543 92.2407 98.7646 92.2015C98.6377 92.2038 98.5268 92.2877 98.4902 92.4093C96.9776 97.0225 95.9509 101.781 95.4267 106.607C94.898 111.384 94.7146 116.191 94.8779 120.994C95.0092 125.435 95.3875 129.869 95.948 134.277C96.4204 137.989 97.0202 141.684 97.712 145.361C97.7983 145.815 97.908 146.274 97.9649 146.733C98.0175 147.024 97.9814 147.324 97.861 147.595C97.7316 147.805 97.5617 147.988 97.3612 148.132C96.9868 148.444 96.5772 148.73 96.391 149.196C96.229 149.62 96.2452 150.092 96.4361 150.504C96.883 151.546 97.957 151.936 99.0174 152.009C99.6426 152.052 100.274 152.009 100.897 151.997C101.624 151.976 102.349 151.946 103.075 151.913C105.855 151.782 108.631 151.568 111.403 151.27C112.579 151.141 113.829 151.021 114.846 150.361C115.623 149.836 116.204 149.068 116.497 148.177C117.151 146.305 116.849 144.228 116.604 142.311C116.324 140.123 116.016 137.938 115.707 135.755C115.04 131.068 114.36 126.38 113.841 121.674C113.312 116.888 112.935 112.07 112.929 107.256C112.929 102.687 113.245 98.0893 114.237 93.6186C114.466 92.5857 114.733 91.5586 115.038 90.5453C115.144 90.1945 114.597 90.0455 114.494 90.3944C113.22 94.6103 112.645 99.0184 112.447 103.405C112.232 108.109 112.447 112.825 112.861 117.517C113.274 122.209 113.884 126.866 114.539 131.523C114.85 133.753 115.174 135.984 115.485 138.216C115.773 140.27 116.12 142.332 116.269 144.406C116.401 146.209 116.348 148.45 114.817 149.698C113.864 150.468 112.573 150.59 111.401 150.717C110.037 150.865 108.67 150.996 107.302 151.109C105.934 151.223 104.562 151.309 103.186 151.366C101.869 151.427 100.532 151.529 99.2134 151.478C98.2334 151.441 96.8261 151.031 96.832 149.796C96.832 149.29 97.224 148.977 97.5905 148.687C97.957 148.397 98.3412 148.056 98.4764 147.566C98.6234 147.036 98.4862 146.474 98.3843 145.949C98.3098 145.557 98.2373 145.165 98.1628 144.773C98.01 143.945 97.8603 143.117 97.714 142.287C97.3978 140.432 97.1038 138.581 96.832 136.735C96.2303 132.523 95.7893 128.287 95.558 124.038C95.2888 119.376 95.3215 114.702 95.656 110.045C95.9881 105.254 96.7796 100.506 98.0198 95.8667C98.3229 94.756 98.6581 93.6539 99.0252 92.5602L98.7528 92.7679C102.982 92.9071 107.257 92.7033 111.391 91.7409C112.554 91.47 113.702 91.1377 114.831 90.7452C115.178 90.6257 115.031 90.0788 114.684 90.1984Z" fill="black"/>
<path d="M141.324 13.8779C143.092 9.91869 145.002 6.02875 147.055 2.20805C147.629 1.13985 148.662 -0.100827 149.799 0.349973C150.446 0.608693 150.758 1.32997 150.932 2.01597C151.531 4.39199 151.253 6.9043 150.148 9.09157C149.968 9.44633 149.731 9.81873 149.348 9.93045C148.966 10.0422 148.468 9.68937 148.604 9.31501C150.025 8.11941 151.485 6.90029 153.231 6.27113C154.977 5.64197 157.1 5.71645 158.502 6.93753C159.903 8.15861 160.124 10.6733 158.65 11.8042C158.441 11.9923 158.165 12.0871 157.884 12.0669C157.275 11.9649 157.196 10.9967 157.688 10.6125C158.18 10.2284 158.882 10.3146 159.452 10.5518C161.053 11.2157 162.077 12.7992 162.027 14.5315C161.976 16.2638 160.861 17.7849 159.225 18.3545C159.064 17.1785 160.82 16.4867 161.773 17.204C162.725 17.9214 162.829 19.3365 162.467 20.4655C161.908 22.204 160.473 23.5505 158.856 24.3992C157.239 25.2479 155.44 25.6653 153.66 26.075L144.752 28.1173C144.148 28.2565 143.247 28.182 143.243 27.5607" fill="#AFAA96"/>
<path d="M48.7316 32.6841C45.8632 29.4788 43.4132 25.9224 41.4404 22.1001C40.4232 20.1225 39.5275 17.9998 39.5157 15.7752C39.504 13.5506 40.5565 11.1947 42.5635 10.2362C44.6313 9.25623 47.2205 9.99123 48.9061 11.5435C50.5917 13.0959 51.5148 15.3067 52.1205 17.5176C52.2479 17.9841 52.3616 18.4976 52.1832 18.9406C52.0048 19.3835 51.4129 19.7011 51.0209 19.4188C50.8446 19.2662 50.724 19.0594 50.6779 18.8308C49.9351 16.2377 51.9813 13.7525 53.8708 11.8277C55.5858 10.0814 57.8652 8.18411 60.1898 8.94851C61.2992 9.31307 62.138 10.2421 62.7535 11.2358C64.7742 14.5031 64.8468 18.6975 63.7335 22.3745C62.6202 26.0515 60.423 29.2972 58.1004 32.3568C57.091 33.6896 55.9444 35.0714 54.3451 35.5536C52.7457 36.0357 50.6309 35.1184 50.5192 33.4485" fill="#AFAA96"/>
<path d="M66.0992 53.4012C67.336 50.4886 68.6688 47.58 70.568 45.032C71.1062 44.3122 71.6958 43.6323 72.332 42.9975C72.4191 42.9052 72.435 42.7666 72.3712 42.657C72.3073 42.5474 72.1789 42.4929 72.0557 42.5232C67.4822 43.4348 63.0649 45.004 58.9413 47.1821C56.88 48.27 54.9016 49.5082 53.0221 50.8865C51.1837 52.1978 49.477 53.6846 47.9261 55.3259C46.4483 56.937 45.1821 58.7579 44.3844 60.8002C43.961 61.8821 43.5886 63.1326 43.9924 64.2772C44.3413 65.2964 45.1841 66.0412 46.0543 66.6116C49.6489 69.0028 54.4019 68.9146 58.3376 67.4759C59.4701 67.0562 60.564 66.5387 61.6069 65.9295C61.8205 65.806 62.1949 65.6786 62.2831 65.4356C62.3227 65.2865 62.3496 65.1344 62.3635 64.9809C62.3974 64.7992 62.4327 64.6169 62.4693 64.434C62.5947 63.8107 62.7378 63.1894 62.8927 62.572C63.5557 60.057 64.386 57.5891 65.3779 55.1848C65.6171 54.5915 65.8621 53.9996 66.1129 53.409C66.2541 53.0778 65.766 52.7877 65.6249 53.1229C64.3274 56.1785 63.1357 59.289 62.3243 62.5132C62.0949 63.4285 61.897 64.3537 61.7363 65.2847L61.8656 65.1161C58.7551 67.0134 55.1918 68.1992 51.5109 67.8738C49.8097 67.7401 48.1616 67.2185 46.6933 66.3489C45.9583 65.9021 45.2135 65.3689 44.7646 64.6104C44.255 63.7578 44.3491 62.7719 44.6215 61.8664C45.6427 58.4286 48.1789 55.6101 50.8504 53.3267C53.7176 50.8964 56.8711 48.8256 60.2408 47.1605C63.6152 45.4799 67.1773 44.2061 70.8522 43.366C71.303 43.2641 71.7558 43.168 72.2105 43.0779L71.9341 42.6035C69.6703 44.8752 68.0788 47.6995 66.7401 50.5945C66.3481 51.4333 65.9836 52.2801 65.6229 53.1307C65.472 53.4463 65.9561 53.7363 66.0992 53.4012Z" fill="black"/>
<path d="M155.35 62.039C153.768 55.6337 149.184 50.3398 143.645 46.9313C140.397 44.9341 136.785 43.5464 133.11 42.6037C131.236 42.1299 129.339 41.7557 127.426 41.4825C126.473 41.344 125.517 41.2251 124.558 41.1258C124.369 41.1327 124.18 41.0986 124.006 41.0258C123.86 40.8902 123.732 40.7375 123.623 40.5711C123.333 40.2379 123.035 39.9165 122.708 39.6147C121.638 38.6053 120.283 37.6174 118.849 37.2176C118.049 36.9961 117.214 36.8589 116.405 36.6825C113.5 36.0455 110.525 35.7711 107.565 35.581C99.2472 35.0373 90.8942 35.6521 82.7456 37.4077C79.2176 38.178 75.6896 39.3226 72.8868 41.6903C70.276 43.8992 68.4768 46.9019 67.0185 49.9536C65.3911 53.3096 64.0153 56.7818 62.9025 60.3416C61.7971 63.9598 61.068 67.7799 61.3718 71.5764C61.6318 75.0755 62.8948 78.4255 65.0095 81.2254C66.9989 83.8342 69.6175 85.9294 72.4889 87.4974C75.8209 89.3124 79.4959 90.4061 83.2062 91.1195C87.1575 91.882 91.1932 92.2955 95.2053 92.5817C102.879 93.1462 110.85 92.8463 117.914 89.4829C120.981 88.0227 123.815 85.998 126.022 83.4069C128.355 80.6629 129.942 77.3544 130.84 73.8794C131.272 72.1967 131.558 70.4799 131.695 68.7481L131.269 68.9911C134.864 71.5156 139.035 73.2188 143.464 73.3835C145.555 73.4804 147.644 73.1654 149.613 72.4564C151.496 71.7567 153.396 70.663 154.587 69.0048C156.042 66.9821 155.901 64.3538 155.35 62.0429C155.266 61.6882 154.719 61.8469 154.803 62.1938C155.287 64.2185 155.465 66.5058 154.34 68.3561C153.298 70.0711 151.361 71.1922 149.531 71.8841C145.791 73.2992 141.597 73.017 137.855 71.7684C135.608 70.9912 133.486 69.8913 131.555 68.5031C131.359 68.3698 131.146 68.554 131.128 68.7481C130.838 72.3192 129.942 75.8648 128.276 79.0498C126.675 82.1027 124.369 84.7298 121.55 86.7134C115.534 90.9647 108.075 92.274 100.844 92.2485C96.8321 92.2328 92.82 91.8682 88.8392 91.3979C84.9937 90.9451 81.1442 90.2944 77.4712 89.0458C71.1992 86.9094 65.182 82.6504 62.9123 76.1882C60.38 68.9813 62.9006 61.1394 65.6838 54.4009C66.9754 51.2649 68.3474 48.1132 70.329 45.3516C71.2881 43.9884 72.4372 42.7694 73.7413 41.7315C75.1977 40.6287 76.8198 39.764 78.5472 39.1697C82.1713 37.8683 86.0874 37.2529 89.8898 36.7511C97.9676 35.6847 106.152 35.7111 114.223 36.8295C114.997 36.9373 115.756 37.1255 116.52 37.294C117.249 37.4528 118.006 37.5723 118.723 37.7762C120.24 38.2074 121.652 39.3226 122.728 40.4339C123.002 40.7181 123.265 41.0219 123.512 41.3179C123.627 41.459 123.69 41.5766 123.862 41.6276C124.092 41.6719 124.325 41.6955 124.558 41.6981C125.521 41.7974 126.482 41.9183 127.439 42.0607C131.163 42.6134 134.858 43.4994 138.355 44.9145C144.54 47.4194 150.138 51.7745 153.182 57.8211C153.884 59.2145 154.426 60.6827 154.799 62.1978C154.891 62.5427 155.436 62.3938 155.35 62.039Z" fill="black"/>
<path d="M97.4906 70.2024L95.3444 61.3824C95.0994 60.3749 94.8368 59.3303 94.1802 58.5267C93.0277 57.1155 91.003 56.8273 89.1802 56.8215C85.9325 56.8099 82.7074 57.3623 79.6487 58.4541C78.8157 58.7521 77.9122 59.1715 77.5946 59.9986C77.3751 60.5651 77.4849 61.2001 77.5946 61.7959C79.1553 69.7806 81.1901 77.6653 83.6883 85.4081C84.0078 86.3998 84.3704 87.4426 85.1798 88.0991C85.8306 88.6264 86.6812 88.8283 87.5044 88.9812C90.1831 89.4755 92.915 89.6178 95.6306 89.4045C96.9085 89.3026 98.2491 89.0948 99.2566 88.2991C100.517 87.3014 100.983 85.5551 100.825 83.9498C100.666 82.3446 100.001 80.8472 99.3369 79.383" fill="#AFAA96"/>
<path d="M97.7651 70.12C97.0301 67.0996 96.3068 64.0753 95.5601 61.0569C95.2563 59.8339 94.8466 58.5893 93.8294 57.772C92.9317 57.0526 91.8028 56.7449 90.6777 56.6116C89.349 56.4829 88.0106 56.4895 86.6832 56.6312C85.2151 56.7591 83.7591 57.0003 82.3281 57.3525C81.6094 57.5289 80.8986 57.7341 80.1956 57.968C79.5988 58.1422 79.0215 58.3774 78.4728 58.6696C77.9816 58.9287 77.5891 59.3418 77.3556 59.8456C77.0949 60.4787 77.2027 61.1686 77.3282 61.8174C78.4806 67.7876 79.9232 73.7068 81.6127 79.5456C82.0269 80.9829 82.4575 82.4124 82.9044 83.8341C83.12 84.526 83.3316 85.2218 83.5668 85.9058C83.7473 86.4909 84.0064 87.0487 84.3371 87.564C84.6852 88.0754 85.1664 88.482 85.7287 88.74C86.3356 88.995 86.9725 89.1715 87.624 89.2652C89.1133 89.5324 90.6199 89.6922 92.132 89.7435C93.5713 89.8063 95.0133 89.7532 96.444 89.5847C97.6808 89.426 98.947 89.0692 99.8348 88.1422C101.665 86.2331 101.281 83.346 100.409 81.0979C100.162 80.4609 99.8819 79.8396 99.6016 79.2183C99.4507 78.887 98.9626 79.1732 99.1116 79.5025C100.105 81.6977 101.242 84.3084 100.141 86.6859C99.6578 87.731 98.731 88.5039 97.6161 88.7909C96.3421 89.1633 94.9505 89.1829 93.6314 89.2084C92.2121 89.2275 90.7931 89.1509 89.3841 88.9791C88.6746 88.8928 87.9651 88.7831 87.2634 88.64C86.6729 88.5426 86.1051 88.3388 85.5876 88.0383C84.5488 87.3719 84.2019 86.0783 83.8491 84.965C83.4113 83.6021 82.9893 82.236 82.5829 80.8666C80.9444 75.3551 79.5397 69.7815 78.3689 64.1459C78.22 63.4311 78.0749 62.7125 77.9338 61.9899C77.8103 61.3646 77.6143 60.6453 77.8848 60.0299C78.0965 59.5477 78.5512 59.2459 79.0059 59.0126C79.58 58.7498 80.1737 58.5322 80.7817 58.3619C83.4563 57.5239 86.2422 57.095 89.045 57.0899C90.1544 57.0899 91.2892 57.1683 92.3359 57.5622C93.3995 57.9544 94.2353 58.7967 94.6193 59.8633C94.8327 60.4732 95.0081 61.0957 95.1446 61.7272L95.6561 63.8244L96.7184 68.1894L97.2241 70.2768C97.3104 70.6315 97.8572 70.4728 97.771 70.1258L97.7651 70.12Z" fill="black"/>
<path d="M63.3024 77.8718C57.8046 82.1054 50.5957 83.4559 44.0944 80.559C36.3308 77.0996 30.0118 65.2083 32.3344 57.039C33.6613 52.3801 37.0227 48.023 36.1309 43.2132C36.1018 43.0468 36.0405 42.8877 35.9506 42.7447C35.49 42.0548 34.6119 42.386 34.022 42.7976C33.2847 43.3174 32.6248 43.9391 32.062 44.644C31.955 44.394 31.8174 44.1583 31.6523 43.9423C29.6695 41.1709 27.3772 38.6346 24.8198 36.3826C24.3754 35.9805 23.7468 35.8534 23.1812 36.0513C22.5364 36.2885 22.4638 36.8353 22.4599 37.3332C22.456 38.7571 22.8831 40.1489 23.6849 41.3257C22.587 40.4388 21.2607 39.8803 19.859 39.7146C19.3756 39.6639 18.8973 39.8489 18.5737 40.2117C18.2502 40.5744 18.1209 41.0707 18.2263 41.5452C18.4623 42.5868 19.0132 43.5304 19.8041 44.248C19.0317 43.9634 18.2095 43.8387 17.3874 43.8815C16.672 43.9207 15.9116 44.1069 15.6234 44.987C15.4428 45.5901 15.5276 46.2416 15.8567 46.7784C16.5584 47.9877 17.9108 48.5934 18.6987 49.7086C19.4611 50.7886 19.5905 52.1958 20.2138 53.362C21.0977 55.0143 22.9048 56.059 23.6457 57.7799C24.1926 59.05 24.0769 60.4886 24.0534 61.8704C23.8692 73.356 31.715 84.528 42.5813 88.25C51.0622 91.1567 60.874 89.3476 68.0613 84.0458C66.0712 82.3333 64.4518 80.2324 63.3024 77.8718Z" fill="black"/>
<path d="M63.1593 77.6268C59.2746 80.604 54.3922 82.2308 49.4844 81.7232C47.1796 81.4962 44.9478 80.7899 42.9321 79.6495C41.2567 78.6552 39.7464 77.4061 38.4555 75.9471C35.6375 72.8341 33.6431 69.0656 32.6538 64.9848C32.1836 63.1005 32.0326 61.1507 32.207 59.2165C32.4382 56.9723 33.3555 54.879 34.2493 52.8308C35.2293 50.5709 36.2838 48.2679 36.5209 45.7748C36.5788 45.1732 36.5788 44.5674 36.5209 43.9657C36.466 43.3954 36.4288 42.7172 35.9604 42.3174C35.0764 41.5628 33.8632 42.5016 33.1772 43.0759C32.6943 43.4831 32.2519 43.936 31.8561 44.4283L32.3285 44.5537C32.0717 43.9344 31.6209 43.4013 31.2191 42.8701C30.8173 42.3389 30.3822 41.7823 29.9451 41.2551C29.071 40.1967 28.1504 39.1814 27.1835 38.2092C26.7052 37.7271 26.2166 37.2573 25.7174 36.8C25.2607 36.3805 24.8099 35.8827 24.1886 35.722C23.6378 35.563 23.044 35.687 22.603 36.0532C22.2521 36.3786 22.1757 36.8607 22.1698 37.3174C22.1684 38.7913 22.6087 40.2318 23.434 41.453L23.8789 41.11C23.2599 40.6112 22.5703 40.2069 21.8327 39.9105C21.4661 39.7642 21.0887 39.6468 20.7037 39.5597C20.3449 39.4607 19.9745 39.41 19.6022 39.4087C18.9665 39.4425 18.3964 39.8111 18.1048 40.377C17.7833 41.014 17.9186 41.6863 18.1616 42.3252C18.4714 43.1377 18.9667 43.8666 19.6081 44.4538L19.8825 43.9795C19.075 43.6881 18.2172 43.5614 17.36 43.6071C16.7935 43.6404 16.2055 43.7678 15.792 44.1813C15.2824 44.689 15.1589 45.4769 15.3118 46.157C15.4705 46.8685 15.9409 47.4683 16.4584 47.9622C16.9758 48.4561 17.5109 48.8363 17.993 49.3205C18.508 49.8568 18.8923 50.5048 19.1161 51.2138C19.365 51.9331 19.5571 52.6721 19.9001 53.3581C20.2241 53.9718 20.6332 54.5366 21.1153 55.0358C22.06 56.0707 23.1851 57.0233 23.581 58.4207C23.9985 59.9005 23.7437 61.4999 23.7888 63.0169C23.8743 65.6963 24.364 68.3473 25.2411 70.8805C26.9996 75.9671 30.1268 80.4703 34.2787 83.8949C36.3358 85.5895 38.6323 86.9706 41.0936 87.9932C43.7782 89.0869 46.6269 89.7236 49.5216 89.8768C52.4816 90.0359 55.4484 89.7351 58.3161 88.985C61.1743 88.2455 63.9037 87.0765 66.4109 85.5177C67.0264 85.1355 67.6261 84.7337 68.2102 84.2967C68.285 84.2515 68.3351 84.1746 68.3462 84.0879C68.3573 84.0013 68.3281 83.9143 68.2671 83.8517C66.3026 82.1484 64.7026 80.0657 63.563 77.7287C63.4062 77.3994 62.9182 77.6856 63.0731 78.0149C64.2336 80.3946 65.8622 82.5157 67.8613 84.2516L67.9182 83.8067C63.2481 87.2342 57.6481 89.1642 51.8579 89.3417C48.9772 89.4349 46.1009 89.0508 43.3457 88.2049C40.8477 87.4204 38.4856 86.2555 36.3426 84.7514C34.2052 83.255 32.2868 81.4679 30.6429 79.4417C29.0023 77.4253 27.6421 75.1962 26.5994 72.815C25.5412 70.4318 24.8366 67.9068 24.5081 65.3199C24.3549 63.993 24.2986 62.6567 24.3395 61.3215C24.3768 59.7986 24.3532 58.2502 23.4948 56.9292C22.7637 55.8081 21.6798 54.9849 20.888 53.9127C20.4694 53.3213 20.1509 52.6651 19.9452 51.9704C19.7502 51.2679 19.4877 50.5859 19.1612 49.9339C18.4772 48.7109 17.1718 48.0974 16.3368 47.0096C15.888 46.4216 15.6116 45.6259 15.9448 44.9183C16.1996 44.3793 16.7622 44.2107 17.3168 44.1735C18.1335 44.1263 18.9512 44.2463 19.7198 44.5263C19.8437 44.5592 19.9744 44.5057 20.0396 44.3953C20.1048 44.2849 20.0887 44.1447 20.0001 44.052C19.3928 43.4986 18.9327 42.8028 18.6614 42.0273C18.436 41.3687 18.3674 40.6279 19.022 40.1869C19.2976 40.0127 19.6279 39.947 19.9491 40.0026C20.3876 40.0612 20.8195 40.1616 21.2388 40.3025C22.0554 40.5708 22.8175 40.983 23.4889 41.5197C23.7182 41.7039 24.1278 41.4687 23.9338 41.1767C23.2614 40.1945 22.8562 39.0544 22.7578 37.8682C22.7304 37.4762 22.6657 36.9411 22.893 36.5961C23.1616 36.1904 23.7809 36.1669 24.1945 36.3237C24.446 36.4389 24.6739 36.5997 24.8668 36.798C25.102 37.0077 25.3332 37.2194 25.5645 37.435C26.014 37.8545 26.4544 38.2824 26.8856 38.7188C27.7284 39.5708 28.5352 40.456 29.3062 41.3746C29.757 41.9104 30.1947 42.4572 30.6194 43.0151C30.8284 43.2895 31.0355 43.5672 31.2407 43.8481C31.455 44.1147 31.6385 44.4047 31.7875 44.7125C31.86 44.885 32.1109 45.0241 32.2599 44.8379C32.6747 44.3222 33.141 43.85 33.6515 43.4287C34.0435 43.0994 34.5198 42.7192 35.049 42.6447C35.733 42.5349 35.8624 43.1935 35.931 43.7286C36.0039 44.3137 36.0197 44.9045 35.978 45.4926C35.8114 47.9877 34.7295 50.3259 33.7416 52.5858C32.842 54.6497 31.9345 56.7391 31.666 58.9931C31.4632 60.9209 31.5831 62.869 32.0208 64.7574C32.9525 68.8375 34.8644 72.629 37.5911 75.804C38.8584 77.3172 40.3393 78.6378 41.9874 79.724C43.8654 80.9146 45.9614 81.7201 48.1535 82.0936C52.9438 82.9423 57.8967 81.7702 61.9637 79.1536C62.4733 78.8263 62.9653 78.4774 63.4454 78.1089C63.7297 77.8973 63.4494 77.4053 63.1593 77.6268Z" fill="black"/>
<path d="M48.9316 32.488C46.7156 30.0064 44.7463 27.315 43.0516 24.452C42.1831 23.0233 41.4162 21.5352 40.7565 19.9989C40.141 18.4995 39.6941 16.8785 39.8078 15.2439C39.8819 13.9102 40.3813 12.6353 41.2327 11.6061C42.128 10.5708 43.4506 10.006 44.8176 10.0754C46.2276 10.1579 47.5675 10.7186 48.6161 11.6649C49.7411 12.6685 50.5388 13.9934 51.1033 15.3772C51.3836 16.074 51.6225 16.7867 51.8187 17.5116C51.9285 17.9036 52.0578 18.3368 51.9441 18.7405C51.8736 18.9953 51.6207 19.2658 51.3307 19.2384C50.9975 19.207 50.923 18.7072 50.8701 18.4544C50.8016 18.1073 50.7818 17.7524 50.8113 17.3999C50.884 16.6854 51.1014 15.9932 51.4502 15.3654C52.1735 13.9934 53.2554 12.8292 54.3491 11.7453C55.4173 10.6928 56.6481 9.60107 58.1279 9.19731C61.3502 8.31531 63.2063 12.0256 63.8119 14.5912C64.5313 17.6175 64.0746 20.8083 62.9672 23.6817C61.7912 26.7138 59.9409 29.4323 57.9947 32.0117C57.1244 33.1681 56.1875 34.3931 54.8587 35.0458C53.7963 35.5691 52.4537 35.526 51.511 34.7557C51.1016 34.4383 50.8397 33.9675 50.7858 33.4523C50.7564 33.0936 50.1978 33.0897 50.2193 33.4523C50.3252 34.7616 51.4463 35.6495 52.6752 35.8905C54.1354 36.1806 55.478 35.524 56.5423 34.5577C57.1268 34.0034 57.6613 33.3987 58.1397 32.7506C58.6767 32.0529 59.1994 31.346 59.7077 30.6299C60.7423 29.1967 61.6712 27.6901 62.487 26.1219C64.0236 23.1035 64.9762 19.7401 64.6626 16.3317C64.5323 14.6964 64.0743 13.104 63.3161 11.6493C62.583 10.2773 61.4815 8.90527 59.8841 8.57207C58.2867 8.23887 56.7187 9.03071 55.4702 9.99503C54.1469 11.0355 52.9614 12.2401 51.9422 13.5799C50.9877 14.8245 50.1488 16.3356 50.2448 17.9565C50.284 18.5994 50.4212 19.6382 51.1954 19.7872C51.9696 19.9361 52.5125 19.2109 52.5557 18.5269C52.5558 18.0904 52.4822 17.6571 52.3381 17.2451C52.2257 16.8452 52.1022 16.4493 51.9677 16.0573C51.7008 15.2732 51.369 14.5127 50.9759 13.7837C50.2135 12.3941 49.1492 11.1377 47.7517 10.3596C46.4405 9.62851 44.8627 9.28943 43.3829 9.64419C41.956 9.98523 40.8015 10.9907 40.1038 12.2608C38.4025 15.3595 39.5256 18.8973 40.9936 21.8413C42.6096 25.0543 44.5665 28.0843 46.8305 30.8788C47.3819 31.5622 47.949 32.2312 48.5318 32.8859C48.7748 33.1583 49.1727 32.7565 48.9238 32.4939L48.9316 32.488Z" fill="black"/>
<path d="M135.121 28.5505L132.747 23.3878C131.861 21.4611 130.971 19.2032 131.912 17.3001C132.5 16.0986 133.711 15.3401 134.874 14.6639C135.773 14.1445 136.704 13.6368 137.726 13.4487C138.747 13.2605 139.891 13.4487 140.638 14.1699C141.21 14.7207 141.481 15.5067 141.722 16.2632C142.587 19.0026 143.277 21.794 143.79 24.6207C144.129 26.4885 144.333 28.5995 143.184 30.1087C142.036 31.6179 139.954 31.9844 138.069 32.0491C137.043 32.0824 135.679 31.7511 135.66 30.7261" fill="black"/>
<path d="M135.364 28.4073L133.114 23.5073C132.457 22.0765 131.742 20.5321 131.797 18.9209C131.82 18.1806 132.067 17.4647 132.504 16.8669C132.943 16.3219 133.474 15.8576 134.072 15.4949C134.697 15.0843 135.345 14.7093 136.012 14.3718C136.69 13.9948 137.437 13.7569 138.208 13.6721C138.889 13.6084 139.573 13.7717 140.152 14.1366C140.764 14.5482 141.079 15.2479 141.312 15.9202C141.871 17.5489 142.314 19.2267 142.718 20.8986C143.134 22.5054 143.457 24.1349 143.686 25.779C143.852 27.151 143.854 28.6641 143.031 29.8421C142.265 30.9397 140.93 31.4101 139.664 31.6198C139.029 31.7329 138.384 31.7809 137.739 31.7629C137.234 31.7433 136.638 31.6453 136.238 31.3081C136.058 31.1651 135.95 30.9501 135.942 30.7201C135.926 30.3575 135.354 30.3556 135.375 30.7201C135.436 32.0608 137.071 32.3626 138.139 32.3234C139.57 32.2685 141.101 32.0569 142.326 31.265C145.287 29.3521 144.268 25.3439 143.66 22.496C143.268 20.6431 142.797 18.8099 142.245 16.9962C142.006 16.2024 141.791 15.3596 141.365 14.6442C140.982 13.9899 140.369 13.501 139.646 13.2722C138.023 12.7528 136.391 13.4682 134.993 14.2699C133.692 15.0068 132.249 15.8516 131.614 17.2726C130.893 18.8641 131.312 20.6379 131.924 22.1922C132.616 23.9464 133.474 25.6437 134.262 27.3587L134.876 28.6935C135.029 29.0228 135.517 28.7366 135.364 28.4073Z" fill="black"/>
<path d="M141.569 14.0209C142.484 11.9681 143.438 9.93497 144.433 7.92139C144.923 6.92833 145.421 5.93918 145.928 4.95395C146.42 4.00139 146.892 3.02531 147.439 2.10215C147.816 1.46907 148.431 0.589033 149.246 0.534153C150.166 0.477313 150.518 1.53375 150.691 2.24915C151.144 4.19027 151.002 6.22292 150.283 8.08211C150.134 8.53969 149.918 8.97287 149.642 9.36787C149.542 9.5237 149.38 9.6303 149.197 9.66187C149.088 9.66187 148.852 9.57955 148.86 9.43647C148.86 9.44823 148.843 9.45019 148.929 9.40119C148.975 9.36898 149.018 9.33292 149.058 9.29339L149.319 9.07583C149.515 8.91315 149.711 8.75047 149.907 8.59171C150.299 8.27223 150.716 7.96255 151.142 7.67639C152.665 6.64739 154.486 5.89475 156.355 6.23971C157.198 6.37403 157.973 6.78176 158.56 7.40003C159.034 7.94275 159.316 8.62578 159.364 9.34435C159.435 10.0359 159.233 10.7278 158.801 11.273C158.605 11.5004 158.123 11.9825 157.8 11.7356C157.604 11.5886 157.614 11.2514 157.696 11.0496C157.843 10.6909 158.284 10.6125 158.639 10.638C159.08 10.6895 159.503 10.8461 159.872 11.0946C160.58 11.5494 161.128 12.2141 161.44 12.9958C162.062 14.6016 161.559 16.4253 160.203 17.4862C159.881 17.7427 159.518 17.9447 159.131 18.084L159.487 18.3564C159.417 17.7312 159.962 17.3314 160.526 17.2236C161.218 17.0922 161.79 17.4607 162.094 18.0742C162.853 19.5854 161.898 21.4356 160.854 22.541C159.521 23.9503 157.706 24.7147 155.871 25.2321C153.77 25.8201 151.616 26.2494 149.489 26.7374L145.848 27.5743C145.338 27.6919 144.805 27.8781 144.28 27.8938C144.045 27.8938 143.531 27.8938 143.513 27.5626C143.496 27.2 142.925 27.198 142.947 27.5626C142.994 28.4642 144.078 28.5426 144.762 28.4034C145.983 28.1623 147.196 27.8448 148.41 27.5665C150.844 27.0079 153.31 26.51 155.718 25.8613C157.784 25.3046 159.856 24.4677 161.332 22.8586C162.525 21.5532 163.464 19.4776 162.569 17.7626C162.167 16.9315 161.246 16.4865 160.346 16.6885C159.562 16.8531 158.823 17.5019 158.921 18.3604C158.939 18.5289 159.088 18.7034 159.278 18.6348C161.138 17.9664 162.471 16.0319 162.269 14.0366C162.163 13.0385 161.737 12.1014 161.055 11.3651C160.405 10.6595 159.399 10.0206 158.404 10.0735C157.934 10.0692 157.493 10.2992 157.228 10.687C157.038 11.0153 157.004 11.4112 157.135 11.7669C157.274 12.1681 157.678 12.4148 158.098 12.3549C158.578 12.2922 158.99 11.9296 159.274 11.5709C160.342 10.1989 160.001 8.06055 158.807 6.88259C157.32 5.41455 154.909 5.35575 153.049 6.04763C151.98 6.46904 150.978 7.04415 150.076 7.75479C149.605 8.11151 149.15 8.48391 148.704 8.86415C148.508 9.02879 148.28 9.16207 148.274 9.45215C148.276 9.67801 148.381 9.89068 148.558 10.0304C148.908 10.3222 149.415 10.3263 149.77 10.0402C150.191 9.72655 150.417 9.19343 150.62 8.72303C151.086 7.65436 151.371 6.51579 151.463 5.35379C151.561 4.19295 151.458 3.02395 151.157 1.89831C150.914 1.00063 150.373 0.0265134 149.321 -0.00288656C148.329 -0.0283666 147.557 0.867353 147.067 1.62391C146.745 2.11979 146.479 2.65879 146.21 3.18015C145.901 3.76815 145.594 4.35615 145.289 4.94415C144.09 7.27917 142.941 9.64031 141.844 12.0276C141.582 12.6025 141.321 13.1788 141.06 13.7563C140.913 14.0856 141.401 14.3737 141.55 14.0425L141.569 14.0209Z" fill="black"/>
<path d="M103.99 0.540037C99.8091 0.242963 95.6077 0.458863 91.4793 1.18292C89.6526 1.50436 87.8063 1.9042 86.1383 2.75092C84.6047 3.52931 83.3159 4.71631 82.4143 6.18092C80.3641 9.47176 80.2583 13.4623 80.4974 17.2157C80.5641 18.2232 80.6209 19.2384 80.7463 20.24C80.8581 21.1259 81.0737 22.004 81.5774 22.7488C82.4123 23.9875 83.7883 24.7245 85.2014 25.1008C85.9441 25.2989 86.7054 25.4185 87.4731 25.4575C88.4648 25.5104 89.4683 25.4575 90.4542 25.5986C92.0894 25.8328 93.5138 26.8354 94.286 28.2956C94.4607 28.6322 94.5955 28.9881 94.6878 29.356C94.7233 29.4782 94.8349 29.5627 94.9622 29.5637C96.1382 29.4716 96.199 28.1153 96.4303 27.2313C96.5596 26.7452 96.7478 26.22 97.2809 26.069C97.7415 25.9358 98.2609 25.9436 98.7411 25.8985L100.29 25.7535C102.15 25.5771 104.014 25.4418 105.87 25.1988C107.438 25.0028 109.006 24.6833 110.448 24.0228C111.852 23.4079 113.037 22.3831 113.849 21.0828C114.647 19.7716 114.999 18.2467 115.117 16.7296C115.211 15.1323 115.145 13.5296 114.921 11.9453C114.725 10.3067 114.515 8.63484 113.992 7.06292C113.489 5.47177 112.495 4.08047 111.154 3.08804C110.449 2.59204 109.705 2.1523 108.931 1.77288C108.128 1.35932 107.314 0.920277 106.442 0.667437C106 0.536771 105.541 0.470754 105.08 0.471437C104.932 0.483702 104.819 0.60684 104.819 0.754657C104.819 0.902474 104.932 1.02561 105.08 1.03788C105.993 1.03788 106.844 1.37108 107.657 1.76504C108.42 2.13548 109.18 2.51964 109.909 2.9528C110.647 3.36919 111.319 3.8908 111.906 4.5012C112.43 5.08027 112.852 5.74274 113.157 6.4612C113.804 7.9508 114.039 9.5972 114.256 11.1887C114.488 12.7066 114.603 14.2398 114.603 15.7751C114.578 17.2451 114.376 18.7524 113.751 20.0871C113.126 21.4278 112.086 22.532 110.785 23.2368C109.46 23.964 107.961 24.3207 106.473 24.552C104.747 24.8205 102.996 24.944 101.258 25.1008L98.3569 25.3752C97.6219 25.4438 96.8125 25.434 96.3283 26.0788C96.0206 26.4846 95.9011 27 95.7933 27.4881C95.7011 27.9036 95.6463 28.421 95.3797 28.7719C95.2824 28.9068 95.1301 28.9915 94.9642 29.0032L95.2366 29.2109C94.8406 27.7103 93.8496 26.4361 92.4926 25.6829C90.8501 24.7794 89.0019 25.0165 87.2006 24.8754C85.7581 24.7637 84.2606 24.3756 83.0846 23.5034C82.507 23.0809 82.0447 22.5202 81.7401 21.8727C81.3324 20.9848 81.2775 19.9793 81.2011 19.0209C80.8992 15.2518 80.6131 11.2456 82.232 7.71168C82.9239 6.2064 83.9411 4.8344 85.3112 3.88576C86.7871 2.8646 88.5354 2.34716 90.2739 1.9826C94.2796 1.15922 98.3718 0.834012 102.457 1.01436C102.967 1.03592 103.475 1.06532 103.984 1.10256C104.349 1.12804 104.347 0.561597 103.984 0.536117L103.99 0.540037Z" fill="black"/>
<path d="M88.6196 12.9547C88.3152 13.027 88.0796 13.2678 88.0139 13.5737C87.9482 13.8796 88.0641 14.196 88.312 14.3869C88.5598 14.5778 88.8953 14.6093 89.1743 14.4678C89.3454 14.3705 89.4885 14.2308 89.5898 14.0621C89.7776 13.8106 89.8377 13.4861 89.7525 13.184C89.6427 12.8939 89.2605 12.7077 89.0057 12.8841" fill="#AFAA96"/>
<path d="M88.5451 12.692C88.1261 12.8079 87.8106 13.1539 87.7337 13.5818C87.6512 14.0267 87.8639 14.4742 88.2609 14.6912C88.6598 14.9186 89.1574 14.8773 89.5134 14.5873C89.9264 14.2597 90.1333 13.7368 90.0563 13.2153C89.9544 12.7116 89.3272 12.3392 88.8626 12.6391C88.7755 12.6902 88.7222 12.7839 88.7229 12.885C88.7235 12.986 88.7781 13.0791 88.8659 13.129C88.9538 13.1789 89.0616 13.1782 89.1488 13.1271C89.1645 13.1198 89.1795 13.1113 89.1939 13.1016C89.137 13.1016 89.2174 13.0801 89.1939 13.1016C89.2069 13.1003 89.22 13.1003 89.2331 13.1016H89.1998C89.2095 13.1006 89.2194 13.1006 89.2292 13.1016H89.2801C89.2684 13.1016 89.2213 13.0879 89.2684 13.1016L89.3076 13.1134C89.3585 13.1251 89.2703 13.0879 89.3291 13.1134C89.3579 13.1281 89.3854 13.1451 89.4114 13.1643C89.3566 13.1251 89.4369 13.1937 89.4506 13.2075C89.4644 13.2212 89.4702 13.2467 89.4506 13.2075C89.4506 13.2212 89.4683 13.2329 89.4742 13.2447C89.48 13.2565 89.5075 13.3094 89.4898 13.2682C89.4722 13.2271 89.5016 13.3113 89.5036 13.3211C89.5055 13.3309 89.5153 13.3662 89.5192 13.3897C89.5192 13.3407 89.5192 13.3897 89.5192 13.3897C89.5222 13.4361 89.5222 13.4826 89.5192 13.5289C89.5192 13.5132 89.529 13.4819 89.5192 13.5289C89.5145 13.552 89.5086 13.5749 89.5016 13.5975C89.5016 13.621 89.4898 13.6426 89.482 13.6661C89.4742 13.6896 89.4506 13.7484 89.4683 13.7053C89.4337 13.7826 89.3924 13.8567 89.3448 13.9268L89.3134 13.9738C89.2605 14.0463 89.3311 13.9542 89.2958 13.9934C89.2631 14.0336 89.2278 14.0716 89.19 14.1071L89.1488 14.1424L89.1292 14.1581L89.0253 14.2169C89.041 14.2169 89.0782 14.1875 89.0253 14.2169L88.9744 14.2325L88.9332 14.2423C88.8666 14.2619 88.992 14.2423 88.9234 14.2423C88.8875 14.2443 88.8515 14.2443 88.8156 14.2423C88.7882 14.2423 88.7215 14.2286 88.7842 14.2423L88.6784 14.2169L88.6353 14.2031C88.6078 14.2031 88.5804 14.1777 88.6235 14.2031C88.5905 14.1881 88.5584 14.1711 88.5275 14.1522L88.4902 14.1287C88.4334 14.0934 88.5157 14.1561 88.4902 14.1287C88.4648 14.1012 88.4412 14.0875 88.4197 14.064L88.3903 14.0307C88.353 13.9915 88.4118 14.0718 88.3766 14.0111L88.3295 13.9268C88.3295 13.9523 88.357 13.9719 88.3295 13.9268C88.3234 13.9094 88.3182 13.8918 88.3138 13.8739C88.3138 13.8484 88.2962 13.7621 88.3001 13.8307C88.3001 13.7896 88.3001 13.7504 88.3001 13.7112C88.3001 13.6426 88.3001 13.672 88.3001 13.7112C88.3021 13.6893 88.3061 13.6677 88.3119 13.6465C88.3205 13.6107 88.331 13.5754 88.3432 13.5407C88.3217 13.572 88.3628 13.476 88.3432 13.5407C88.3648 13.5093 88.3668 13.4936 88.3785 13.4701L88.4393 13.378C88.404 13.427 88.4295 13.3937 88.4393 13.378L88.4922 13.3231L88.5334 13.2859C88.4981 13.3192 88.5236 13.2859 88.5471 13.2859C88.5706 13.2859 88.6098 13.2506 88.6412 13.2329C88.5863 13.2623 88.6274 13.2329 88.6412 13.2329L88.7156 13.2114C88.8575 13.1625 88.9369 13.0117 88.897 12.8671C88.8571 12.7224 88.7116 12.6338 88.5647 12.6645L88.5451 12.692Z" fill="#AFAA96"/>
<path d="M95.3757 12.9547C95.0713 13.027 94.8357 13.2678 94.77 13.5737C94.7043 13.8796 94.8202 14.196 95.0681 14.3869C95.3159 14.5778 95.6514 14.6093 95.9304 14.4678C96.1015 14.3705 96.2446 14.2308 96.3459 14.0621C96.5337 13.8106 96.5938 13.4861 96.5086 13.184C96.3988 12.8939 96.0166 12.7077 95.7618 12.8841" fill="#AFAA96"/>
<path d="M95.3012 12.692C94.8822 12.8079 94.5667 13.1539 94.4898 13.5818C94.4073 14.0267 94.62 14.4742 95.017 14.6912C95.4159 14.9186 95.9135 14.8773 96.2695 14.5873C96.6825 14.2597 96.8894 13.7368 96.8124 13.2153C96.7105 12.7116 96.0833 12.3392 95.6187 12.6391C95.5316 12.6902 95.4783 12.7839 95.479 12.885C95.4796 12.986 95.5342 13.0791 95.622 13.129C95.7099 13.1789 95.8177 13.1782 95.9049 13.1271C95.9206 13.1198 95.9356 13.1113 95.95 13.1016C95.8931 13.1016 95.9735 13.0801 95.95 13.1016C95.963 13.1003 95.9761 13.1003 95.9892 13.1016H95.9539C95.9643 13.1006 95.9748 13.1006 95.9853 13.1016H96.0362C96.0245 13.1016 95.9774 13.0879 96.0245 13.1016L96.0637 13.1134C96.1146 13.1251 96.0264 13.0879 96.0852 13.1134C96.114 13.1281 96.1415 13.1451 96.1675 13.1643C96.1127 13.1251 96.193 13.1937 96.2067 13.2075C96.2205 13.2212 96.2263 13.2467 96.2067 13.2075L96.2303 13.2447C96.2303 13.2447 96.2636 13.3094 96.2459 13.2682C96.2283 13.2271 96.2577 13.3113 96.2597 13.3211C96.2616 13.3309 96.2714 13.3662 96.2753 13.3897C96.2753 13.3407 96.2753 13.3897 96.2753 13.3897C96.2783 13.4361 96.2783 13.4826 96.2753 13.5289C96.2753 13.4819 96.2753 13.5132 96.2753 13.5289C96.2706 13.552 96.2647 13.5749 96.2577 13.5975C96.2577 13.621 96.2459 13.6426 96.2381 13.6661C96.2303 13.6896 96.2067 13.7484 96.2244 13.7053C96.1898 13.7826 96.1485 13.8567 96.1009 13.9268L96.0695 13.9738C96.0166 14.0463 96.0872 13.9542 96.0519 13.9934C96.0192 14.0336 95.9839 14.0716 95.9461 14.1071L95.9049 14.1424L95.8853 14.1581L95.7814 14.2169C95.7971 14.2169 95.8343 14.1875 95.7814 14.2169L95.7305 14.2325L95.6893 14.2423C95.6227 14.2619 95.7481 14.2423 95.6795 14.2423C95.6436 14.2443 95.6076 14.2443 95.5717 14.2423C95.5443 14.2423 95.4776 14.2286 95.5384 14.2423L95.4345 14.2169L95.3914 14.2031C95.3639 14.2031 95.3365 14.1777 95.3796 14.2031C95.3466 14.1881 95.3145 14.1711 95.2836 14.1522L95.2463 14.1287C95.1895 14.0934 95.2718 14.1561 95.2463 14.1287C95.2209 14.1012 95.1973 14.0875 95.1758 14.064L95.1464 14.0307C95.1091 13.9915 95.1679 14.0718 95.1327 14.0111C95.117 13.9836 95.1013 13.9542 95.0837 13.9268C95.0837 13.9523 95.1131 13.9719 95.0837 13.9268C95.0775 13.9094 95.0723 13.8918 95.068 13.8739C95.068 13.8484 95.0503 13.7621 95.0543 13.8307C95.0543 13.7896 95.0543 13.7504 95.0543 13.7112C95.0543 13.6426 95.0543 13.672 95.0543 13.7112C95.0563 13.6893 95.0602 13.6677 95.066 13.6465C95.0747 13.6107 95.0851 13.5754 95.0974 13.5407C95.0758 13.572 95.117 13.476 95.0974 13.5407C95.1189 13.5093 95.1209 13.4936 95.1327 13.4701L95.1934 13.378C95.1581 13.427 95.1836 13.3937 95.1934 13.378L95.2463 13.3231L95.2875 13.2859C95.2522 13.3192 95.2777 13.2859 95.3012 13.2859C95.3247 13.2859 95.3639 13.2506 95.3953 13.2329C95.3404 13.2623 95.3816 13.2329 95.3953 13.2329L95.4698 13.2114C95.6116 13.1625 95.691 13.0117 95.6511 12.8671C95.6112 12.7224 95.4657 12.6338 95.3189 12.6645L95.3012 12.692Z" fill="#AFAA96"/>
<path d="M102.124 12.9547C101.82 13.027 101.584 13.2678 101.518 13.5737C101.453 13.8796 101.569 14.196 101.816 14.3869C102.064 14.5778 102.4 14.6093 102.679 14.4678C102.853 14.3724 103 14.2333 103.104 14.064C103.292 13.8125 103.352 13.488 103.267 13.1859C103.157 12.8959 102.775 12.7097 102.52 12.8861" fill="#AFAA96"/>
<path d="M102.057 12.692C101.638 12.8079 101.323 13.1539 101.246 13.5818C101.163 14.0267 101.376 14.4742 101.773 14.6912C102.172 14.9186 102.67 14.8773 103.026 14.5873C103.439 14.2597 103.646 13.7368 103.568 13.2153C103.467 12.7116 102.839 12.3392 102.375 12.6391C102.24 12.7181 102.195 12.8914 102.274 13.0262C102.353 13.1609 102.526 13.2061 102.661 13.1271C102.677 13.1198 102.692 13.1113 102.706 13.1016C102.649 13.1016 102.73 13.0801 102.706 13.1016C102.719 13.1003 102.732 13.1003 102.745 13.1016H102.71C102.72 13.1006 102.731 13.1006 102.741 13.1016H102.792C102.781 13.1016 102.734 13.0879 102.781 13.1016L102.82 13.1134C102.871 13.1251 102.783 13.0879 102.841 13.1134C102.87 13.1281 102.898 13.1451 102.924 13.1643C102.869 13.1251 102.949 13.1937 102.963 13.2075C102.977 13.2212 102.982 13.2467 102.963 13.2075L102.986 13.2447C102.986 13.2447 103.02 13.3094 103 13.2682C102.98 13.2271 103.014 13.3113 103.016 13.3211C103.018 13.3309 103.028 13.3662 103.031 13.3897C103.031 13.3407 103.031 13.3897 103.031 13.3897C103.034 13.4361 103.034 13.4826 103.031 13.5289C103.031 13.4819 103.031 13.5132 103.031 13.5289C103.027 13.552 103.021 13.5749 103.014 13.5975C103.014 13.621 103.002 13.6426 102.994 13.6661C102.986 13.6896 102.963 13.7484 102.98 13.7053C102.946 13.7826 102.905 13.8567 102.857 13.9268L102.824 13.9738C102.773 14.0463 102.841 13.9542 102.808 13.9934C102.775 14.0336 102.74 14.0716 102.702 14.1071L102.661 14.1424L102.639 14.1581C102.606 14.1796 102.573 14.1973 102.538 14.2169C102.553 14.2169 102.59 14.1875 102.538 14.2169L102.487 14.2325L102.445 14.2423C102.379 14.2619 102.504 14.2423 102.445 14.2423C102.409 14.2443 102.374 14.2443 102.338 14.2423C102.31 14.2423 102.244 14.2286 102.304 14.2423L102.2 14.2169L102.157 14.2031C102.13 14.2031 102.102 14.1777 102.146 14.2031C102.113 14.1881 102.08 14.1711 102.049 14.1522L102.012 14.1287C101.955 14.0934 102.038 14.1561 102.012 14.1287C101.987 14.1012 101.963 14.0875 101.942 14.064L101.912 14.0307C101.875 13.9915 101.934 14.0718 101.899 14.0111C101.883 13.9836 101.867 13.9542 101.85 13.9268C101.85 13.9523 101.879 13.9719 101.85 13.9268C101.843 13.9094 101.838 13.8918 101.834 13.8739C101.834 13.8484 101.816 13.7621 101.82 13.8307C101.82 13.7896 101.82 13.7504 101.82 13.7112C101.82 13.6426 101.82 13.672 101.82 13.7112C101.822 13.6893 101.826 13.6677 101.832 13.6465C101.841 13.6107 101.851 13.5754 101.863 13.5407C101.842 13.572 101.883 13.476 101.863 13.5407C101.885 13.5093 101.887 13.4936 101.899 13.4701L101.959 13.378C101.924 13.427 101.959 13.3937 101.959 13.378L102.012 13.3231L102.053 13.2859C102.018 13.3192 102.044 13.2859 102.067 13.2859C102.091 13.2859 102.13 13.2506 102.161 13.2329C102.106 13.2623 102.147 13.2329 102.161 13.2329L102.234 13.2114C102.374 13.1616 102.452 13.0123 102.413 12.8689C102.374 12.7255 102.231 12.6365 102.085 12.6645L102.057 12.692Z" fill="#AFAA96"/>
<path d="M44.1825 11.6179C43.3376 11.7052 42.5814 12.1803 42.1362 12.9037C41.707 13.5466 41.3287 14.458 41.4287 15.2459C41.4597 15.635 41.6794 15.9843 42.0167 16.1808C42.3597 16.3552 42.8575 16.2122 42.9085 15.7888C42.9555 15.3968 42.5518 15.1244 42.1931 15.2008C41.8344 15.2772 41.6208 15.6555 41.509 15.9848C41.2258 16.8839 41.4177 17.8653 42.0186 18.5916C42.2499 18.8738 42.6478 18.472 42.4106 18.1996C42.0146 17.7035 41.8537 17.0597 41.9696 16.4356C41.9967 16.2785 42.0441 16.1257 42.1108 15.9809C42.1376 15.9094 42.1813 15.8455 42.2382 15.7947C42.2382 15.7947 42.3597 15.7359 42.346 15.7712C42.3714 15.7045 42.2225 15.6614 42.1872 15.634C42.1405 15.59 42.1009 15.5391 42.0696 15.483C42.0073 15.3616 41.9738 15.2275 41.9716 15.091C41.95 14.4697 42.246 13.7896 42.5714 13.2741C42.9261 12.7136 43.4926 12.249 44.1746 12.1981C44.5353 12.1706 44.5392 11.6101 44.1746 11.6316L44.1825 11.6179Z" fill="white"/>
<path d="M43.0614 20.1028L43.4142 19.8931C43.4768 19.855 43.523 19.7949 43.5436 19.7245C43.5609 19.651 43.5511 19.5738 43.5161 19.5069C43.4785 19.4431 43.4172 19.3966 43.3456 19.3776C43.2723 19.3579 43.1942 19.3678 43.128 19.405L42.7772 19.6147C42.714 19.6526 42.6671 19.7127 42.6459 19.7833C42.6346 19.8204 42.6346 19.8599 42.6459 19.897C42.6466 19.9347 42.6581 19.9715 42.6792 20.0028C42.7167 20.066 42.777 20.1123 42.8478 20.1322C42.9213 20.1521 42.9997 20.1415 43.0653 20.1028H43.0614Z" fill="white"/>
<path d="M43.6846 21.5393L43.7532 21.4687C43.7812 21.4442 43.8015 21.4123 43.812 21.3766C43.8307 21.3439 43.8395 21.3065 43.8375 21.2688C43.8391 21.2306 43.8303 21.1927 43.812 21.1591C43.8019 21.1238 43.7814 21.0923 43.7532 21.0689L43.6964 21.0238C43.6531 20.9981 43.6036 20.9846 43.5533 20.9846L43.4788 20.9964C43.4312 21.0088 43.3879 21.0338 43.3534 21.0689L43.2828 21.1375C43.2561 21.1626 43.2365 21.1944 43.226 21.2296C43.2077 21.2632 43.1989 21.3012 43.2005 21.3394C43.1991 21.377 43.2079 21.4142 43.226 21.4472C43.2359 21.4826 43.2556 21.5145 43.2828 21.5393L43.3416 21.5824C43.3848 21.6084 43.4343 21.6219 43.4847 21.6216L43.5592 21.6118C43.6065 21.5986 43.6496 21.5737 43.6846 21.5393Z" fill="white"/>
<path d="M44.3961 23.5877C44.5434 23.5754 44.6567 23.4523 44.6567 23.3045C44.6567 23.1566 44.5434 23.0335 44.3961 23.0212C44.2488 23.0335 44.1355 23.1566 44.1355 23.3045C44.1355 23.4523 44.2488 23.5754 44.3961 23.5877Z" fill="white"/>
<path d="M57.8045 10.7319C57.1078 10.7802 56.4272 10.9646 55.8014 11.2749C55.2761 11.5355 54.7528 11.9197 54.4941 12.4646C54.3321 12.7645 54.29 13.1148 54.3765 13.4446C54.4684 13.7523 54.7387 13.9729 55.0586 14.0012C55.3663 14.0189 55.6975 13.7837 55.6113 13.4426C55.5251 13.1016 55.1389 13.0055 54.8273 13.1212C54.1945 13.3786 53.7354 13.9395 53.6082 14.6108C53.5415 14.9675 54.0864 15.1204 54.1531 14.7617C54.1983 14.4927 54.3162 14.2413 54.4941 14.0345C54.5795 13.9357 54.6777 13.8487 54.7861 13.7758C54.8423 13.738 54.9012 13.7046 54.9625 13.6759C54.9961 13.6581 55.0316 13.6443 55.0684 13.6347C55.1154 13.6347 55.1154 13.6288 55.0684 13.6171V13.4661C55.0801 13.4015 55.1174 13.4799 55.0782 13.4348C55.039 13.3897 55.0155 13.4113 54.9959 13.3956C54.939 13.3454 54.9038 13.2752 54.8979 13.1996C54.8833 13.0374 54.9167 12.8745 54.9939 12.7311C55.1482 12.4399 55.3759 12.194 55.6544 12.0177C56.2999 11.599 57.0425 11.354 57.8104 11.3062C58.173 11.2788 58.175 10.7182 57.8104 10.7398L57.8045 10.7319Z" fill="white"/>
<path d="M54.2256 16.9883C54.3729 16.9761 54.4862 16.8529 54.4862 16.7051C54.4862 16.5573 54.3729 16.4341 54.2256 16.4219C54.0783 16.4341 53.965 16.5573 53.965 16.7051C53.965 16.8529 54.0783 16.9761 54.2256 16.9883Z" fill="white"/>
<path d="M134.333 18.5053C134.956 17.5851 135.896 16.9254 136.973 16.6512C137.123 16.6095 137.211 16.4537 137.17 16.3033C137.128 16.1528 136.972 16.0646 136.822 16.1063C135.604 16.4223 134.545 17.1741 133.845 18.2192C133.649 18.523 134.131 18.8072 134.333 18.5053Z" fill="white"/>
<path d="M136.132 19.6892L136.957 19.2306C137.023 19.1925 137.071 19.1296 137.09 19.0559C137.109 18.9822 137.098 18.9039 137.059 18.8386C136.978 18.7039 136.804 18.6587 136.667 18.7366L135.842 19.1953C135.755 19.2464 135.701 19.3401 135.702 19.4412C135.703 19.5423 135.757 19.6353 135.845 19.6852C135.933 19.7352 136.041 19.7344 136.128 19.6833L136.132 19.6892Z" fill="white"/>
<path d="M151.069 11.028C150.499 11.7532 150.654 12.792 151.293 13.431C152.047 14.1816 153.264 14.1601 154.19 13.7818L153.972 13.2644C153.33 13.7063 152.807 14.2993 152.449 14.9911C152.1 15.6712 151.843 16.5238 151.949 17.2941C152.065 18.133 152.829 18.574 153.576 18.7876C154.437 19.0323 155.353 19.0056 156.199 18.7112L155.981 18.1938C154.825 18.6975 153.739 19.8617 153.629 21.1651C153.582 21.8271 153.902 22.4616 154.462 22.8174C155.066 23.2388 155.834 23.3074 156.547 23.3231C156.912 23.3231 156.912 22.7645 156.547 22.7566C155.959 22.7429 155.32 22.7018 154.807 22.3646C154.332 22.085 154.094 21.5293 154.219 20.9926C154.452 19.9499 155.313 19.1012 156.267 18.6838C156.559 18.5564 156.349 18.0624 156.048 18.1663C155.343 18.4184 154.579 18.4572 153.852 18.278C153.213 18.1173 152.506 17.7959 152.496 17.0432C152.476 15.7594 153.217 14.4796 154.26 13.7544C154.503 13.5858 154.36 13.1076 154.043 13.2389C153.339 13.527 152.424 13.6309 151.79 13.1174C151.326 12.741 151.071 11.9414 151.473 11.4298C151.696 11.1476 151.299 10.7438 151.081 11.0378L151.069 11.028Z" fill="black"/>
<path d="M148.029 3.21752L145.532 8.06068L144.286 10.4832C144.09 10.8576 143.894 11.23 143.735 11.62C143.588 11.9768 143.413 12.404 143.459 12.796C143.5 13.1567 143.813 13.5134 144.207 13.435C144.374 13.4001 144.513 13.2879 144.584 13.133C144.654 12.9781 144.646 12.799 144.562 12.651C144.481 12.5152 144.306 12.4705 144.17 12.551C143.666 12.9045 143.346 13.4656 143.3 14.0798C143.266 14.4424 143.833 14.4405 143.864 14.0798C143.902 13.6646 144.116 13.2855 144.452 13.0391L144.06 12.9372C144.06 12.9058 144.06 12.8862 144.084 12.8764C144.054 12.8601 144.032 12.8336 144.021 12.8019C143.995 12.715 143.995 12.6222 144.021 12.5354C144.062 12.334 144.122 12.1371 144.201 11.9474C144.367 11.5454 144.554 11.1528 144.762 10.7714L146.028 8.34684L148.523 3.50368C148.69 3.18028 148.202 2.89412 148.035 3.21752H148.029Z" fill="white"/>
<path d="M152.212 9.68556C152.761 8.73298 153.751 8.11911 154.848 8.05092C155.211 8.03132 155.213 7.46292 154.848 7.48448C153.552 7.5582 152.379 8.27844 151.728 9.40136C151.664 9.53495 151.714 9.6948 151.842 9.76898C151.97 9.84316 152.133 9.80689 152.218 9.68556H152.212Z" fill="white"/>
<path d="M154.599 15.8124C155.148 14.6051 156.278 13.7638 157.592 13.5839C157.74 13.5402 157.827 13.3866 157.788 13.237C157.743 13.0891 157.589 13.0028 157.439 13.041C155.984 13.2579 154.736 14.1928 154.119 15.5282C154.042 15.6646 154.086 15.8376 154.219 15.9202C154.284 15.9588 154.362 15.9697 154.436 15.9506C154.51 15.9315 154.572 15.8839 154.611 15.8183L154.599 15.8124Z" fill="white"/>
<path d="M156.508 20.8711L156.559 20.8006L156.585 20.7653C156.61 20.732 156.585 20.7555 156.585 20.7751C156.622 20.73 156.657 20.6849 156.696 20.6399C156.775 20.5513 156.858 20.4669 156.945 20.387L157.077 20.2733L157.112 20.2479C157.069 20.2792 157.092 20.2635 157.112 20.2479L157.182 20.1969C157.279 20.1256 157.38 20.0601 157.484 20.0009C157.61 19.9176 157.648 19.7509 157.572 19.6209C157.496 19.4909 157.332 19.4427 157.198 19.5109C156.734 19.7689 156.336 20.132 156.038 20.5713C155.999 20.6366 155.988 20.7149 156.007 20.7886C156.026 20.8623 156.074 20.9252 156.14 20.9633C156.276 21.0424 156.451 20.9969 156.532 20.8613L156.508 20.8711Z" fill="white"/>
<path d="M149.787 13.4231C150.576 15.7415 150.445 18.2743 149.421 20.4987C149.268 20.8261 149.756 21.1142 149.909 20.7829C151.01 18.43 151.164 15.7437 150.34 13.2801C150.224 12.9371 149.676 13.0841 149.795 13.429L149.787 13.4231Z" fill="white"/>
<path d="M151.657 22.0708C152.018 21.3356 152.228 20.5361 152.277 19.7188C152.275 19.5633 152.15 19.4376 151.994 19.4365C151.839 19.4396 151.714 19.5639 151.71 19.7188C151.667 20.4358 151.483 21.1373 151.167 21.7826C151.088 21.9192 151.133 22.0939 151.269 22.1746C151.405 22.2552 151.58 22.2105 151.661 22.0747L151.657 22.0708Z" fill="white"/>
<path d="M123.433 79.2457C122.201 78.2433 121.924 76.472 122.792 75.1412C123.66 73.8104 125.392 73.3496 126.806 74.0733C127.559 74.4653 128.12 75.1297 128.633 75.802C133.928 82.8075 136.34 91.5739 135.376 100.302C135.18 101.958 134.848 103.66 133.892 105.026C132.473 107.058 129.854 108.017 127.379 107.907C124.903 107.797 122.557 106.75 120.452 105.441C112.338 100.392 107.41 91.6663 102.397 83.5283C102.052 82.9697 101.695 82.3994 101.187 81.9819C100.219 81.1861 98.8646 81.0725 97.6142 81.143C96.3637 81.2136 95.0956 81.4351 93.8706 81.1783C92.6456 80.9215 91.4343 80.0199 91.3226 78.7734C91.2108 77.5268 92.7416 76.3175 93.7647 77.0407C92.5397 78.6754 89.4645 78.1148 88.8941 76.1529C88.3238 74.1909 90.6248 72.0702 92.5358 72.7973C92.1438 74.1282 90.1191 74.4437 89.147 73.4539C88.1748 72.4641 88.31 70.7099 89.2136 69.6653C90.1172 68.6206 91.5832 68.1835 92.9709 68.2227C94.3586 68.2619 95.6953 68.7107 97.0105 69.1537C95.8972 69.4908 94.6977 68.3697 94.7388 67.2172C94.78 66.0647 95.8031 65.0847 96.9419 64.8535C98.0806 64.6222 99.2743 65.0044 100.254 65.6375C102.987 67.3799 104.19 70.6766 105.433 73.6735C108.678 81.4833 113.305 88.644 119.092 94.8121C121.389 97.2581 124.145 99.6689 127.49 99.9081C128.147 99.9531 128.847 99.9081 129.396 99.5357C130.675 98.6811 130.448 96.7603 130.025 95.2805C128.593 90.2612 126.637 85.4063 124.19 80.7961" fill="black"/>
<path d="M123.633 79.0458C122.559 78.1481 122.261 76.4684 123.045 75.2826C123.871 74.1129 125.422 73.7123 126.71 74.3359C127.481 74.7436 128.033 75.457 128.547 76.1391C129.06 76.8212 129.548 77.5307 130.007 78.2539C130.926 79.7003 131.734 81.2145 132.424 82.7835C133.813 85.944 134.716 89.2962 135.103 92.7266C135.299 94.4289 135.364 96.1436 135.299 97.8559C135.23 99.5768 135.103 101.362 134.57 103.011C134.103 104.567 133.048 105.88 131.63 106.672C130.255 107.407 128.697 107.73 127.143 107.603C125.323 107.474 123.572 106.819 121.971 105.972C120.469 105.163 119.047 104.213 117.724 103.136C115.176 101.084 112.949 98.6497 110.958 96.0586C108.921 93.4086 107.11 90.598 105.352 87.7599C104.478 86.3468 103.618 84.9277 102.747 83.5146C102.302 82.7933 101.852 82.0602 101.14 81.5722C100.46 81.1434 99.6811 80.8982 98.8783 80.8607C97.083 80.7157 95.172 81.388 93.4295 80.7431C92.7317 80.5091 92.1488 80.0187 91.7988 79.3711C91.4903 78.7779 91.6048 78.0529 92.081 77.5836C92.4907 77.1642 93.1159 76.927 93.6392 77.2798L93.5393 76.8878C92.7259 77.9462 91.0599 77.9011 90.0328 77.2034C89.4669 76.8316 89.1207 76.2046 89.1077 75.5276C89.1337 74.7628 89.4915 74.0472 90.0877 73.5676C90.7277 72.9855 91.6309 72.7917 92.4534 73.0599L92.2574 72.711C92.0242 73.4598 91.2049 73.7832 90.4758 73.7361C89.584 73.6793 88.9627 73.0148 88.7961 72.1583C88.6314 71.1841 88.9803 70.1937 89.7192 69.5378C90.5032 68.8283 91.591 68.5225 92.6318 68.4951C94.1136 68.4559 95.5463 68.9498 96.932 69.4182V68.8714C95.8913 69.1615 94.9113 68.0717 95.0269 67.0702C95.1543 65.9432 96.2813 65.1552 97.3476 65.069C98.6216 64.9651 99.8564 65.5825 100.815 66.3783C101.677 67.1196 102.407 68.0033 102.971 68.991C104.208 71.0686 104.978 73.3931 105.964 75.5942C107.057 78.03 108.288 80.4015 109.65 82.6972C112.356 87.2895 115.584 91.5534 119.27 95.4039C120.964 97.1679 122.88 98.8457 125.209 99.6904C126.309 100.082 127.665 100.386 128.823 100.082C129.909 99.7924 130.497 98.8672 130.613 97.7951C130.732 96.672 130.403 95.5568 130.087 94.4925C129.682 93.1192 129.236 91.7577 128.749 90.4079C127.78 87.7124 126.659 85.0745 125.389 82.5071C125.078 81.8773 124.758 81.2534 124.429 80.6353C124.258 80.3119 123.77 80.5981 123.941 80.9195C125.301 83.485 126.51 86.1276 127.563 88.834C128.092 90.1982 128.581 91.5773 129.029 92.9716C129.245 93.6393 129.45 94.3102 129.644 94.9845C129.82 95.5282 129.951 96.0854 130.036 96.6505C130.152 97.607 130.085 98.7928 129.154 99.3337C128.612 99.6512 127.945 99.6473 127.338 99.5924C126.716 99.5347 126.105 99.4031 125.515 99.2004C123.12 98.3772 121.171 96.5819 119.46 94.7767C113.911 88.8981 109.419 82.1056 106.181 74.6985C105.221 72.4974 104.449 70.1748 103.116 68.1599C101.846 66.2411 99.68 64.2399 97.1908 64.532C96.0604 64.6523 95.082 65.371 94.629 66.4136C94.2176 67.4689 94.6412 68.6663 95.6247 69.2281C96.0663 69.4883 96.5943 69.559 97.0888 69.4241C97.2088 69.3871 97.2906 69.2762 97.2906 69.1507C97.2906 69.0252 97.2088 68.9143 97.0888 68.8773C95.6678 68.3971 94.1959 67.8973 92.6769 67.9345C91.448 67.958 90.1798 68.3363 89.2724 69.1928C88.4277 69.9949 88.0457 71.1696 88.2571 72.3151C88.4355 73.3553 89.2722 74.157 90.319 74.2908C91.3558 74.4202 92.475 73.9125 92.8121 72.8678C92.8502 72.7184 92.7638 72.5655 92.6161 72.5209C90.811 71.8624 88.7647 73.4029 88.5491 75.2277C88.3374 77.0152 90.0015 78.2637 91.6538 78.2794C92.5674 78.3031 93.4386 77.8941 94.0038 77.1759C94.0829 77.0394 94.0375 76.8646 93.9019 76.7839C92.6534 75.947 91.0168 77.2994 91.0285 78.6381C91.0422 80.306 92.7729 81.3213 94.239 81.5134C96.1461 81.7604 98.1159 81.0332 99.9857 81.6408C100.864 81.927 101.446 82.5502 101.934 83.3107C102.422 84.0712 102.849 84.7964 103.306 85.5412C105.141 88.54 106.977 91.5408 109.017 94.4063C111.024 97.2228 113.229 99.9178 115.797 102.246C117.081 103.415 118.457 104.478 119.913 105.423C121.503 106.449 123.216 107.338 125.054 107.819C126.74 108.289 128.52 108.299 130.211 107.846C131.776 107.427 133.153 106.49 134.115 105.186C135.189 103.671 135.505 101.772 135.683 99.9648C135.872 98.1654 135.914 96.3536 135.807 94.5474C135.488 89.111 133.902 83.8245 131.175 79.1104C130.724 78.3369 130.244 77.5803 129.733 76.8408C129.233 76.078 128.673 75.3569 128.057 74.6848C127.503 74.0658 126.756 73.6516 125.938 73.5088C125.208 73.4078 124.464 73.533 123.808 73.8674C122.446 74.5741 121.749 76.1234 122.122 77.611C122.281 78.3247 122.667 78.9673 123.223 79.4417C123.502 79.673 123.904 79.2751 123.615 79.0497L123.633 79.0458Z" fill="black"/>
<path d="M91.2049 91.9347C87.2692 91.5427 83.3021 91.0135 79.5017 89.957V89.9688C84.2098 92.6962 89.3457 94.6068 94.6917 95.6195C95.0837 94.518 95.513 93.4269 95.9794 92.3463C94.382 92.2404 92.7905 92.0974 91.2049 91.9347Z" fill="black"/>
<path d="M91.2049 91.6525C87.2849 91.2605 83.3767 90.7353 79.5782 89.6925C79.4281 89.6533 79.2739 89.7399 79.2293 89.8885V89.9023C79.1969 90.0256 79.2496 90.1556 79.3587 90.2217C83.0369 92.3499 86.978 93.9874 91.0814 95.0923C92.2496 95.4059 93.4256 95.6758 94.6094 95.9018C94.7589 95.9369 94.9105 95.8518 94.9583 95.7058C95.3411 94.6226 95.7599 93.5531 96.2147 92.4973C96.2634 92.4098 96.2628 92.3031 96.2131 92.2161C96.1634 92.1291 96.0718 92.0744 95.9716 92.072C94.3781 91.9661 92.7886 91.8231 91.201 91.6623C90.8384 91.6251 90.8423 92.1915 91.201 92.2288C92.7886 92.3895 94.3781 92.5326 95.9716 92.6384L95.7266 92.2131C95.251 93.3107 94.8126 94.4246 94.4115 95.5549L94.7603 95.3589C90.6199 94.573 86.6004 93.2478 82.8043 91.4173C81.7276 90.8947 80.6725 90.3341 79.6389 89.7357L79.7683 90.0551V90.0434L79.4214 90.2394C83.2669 91.3056 87.2359 91.825 91.199 92.2288C91.5675 92.2562 91.5636 91.6898 91.2049 91.6525Z" fill="black"/>
<path d="M114.76 90.4707C113.171 91.0247 111.542 91.4591 109.888 91.7702C106.222 92.4621 102.491 92.611 98.7567 92.4836C98.3569 93.6727 97.995 94.8742 97.6709 96.0881L98.0178 96.1331C100.783 96.4565 103.572 96.5389 106.358 96.6212C108.71 96.6898 111.095 96.7525 113.414 96.4252C113.727 94.4121 114.177 92.4227 114.76 90.4707V90.4707Z" fill="black"/>
<path d="M114.684 90.1981C110.717 91.5701 106.532 92.1424 102.336 92.2287C101.14 92.2542 99.9445 92.2404 98.7489 92.2012C98.622 92.2035 98.5111 92.2875 98.4745 92.409C98.0825 93.5981 97.7212 94.7995 97.3906 96.0134C97.3691 96.0984 97.3875 96.1886 97.4405 96.2584C97.4935 96.3282 97.5754 96.37 97.6631 96.3721C99.7211 96.6387 101.799 96.7484 103.872 96.8249C105.946 96.9013 107.988 96.9895 110.035 96.9523C111.191 96.9362 112.346 96.8498 113.492 96.6936C113.589 96.6696 113.664 96.5942 113.688 96.4976C114.004 94.4869 114.454 92.4997 115.035 90.549C115.14 90.1981 114.594 90.0492 114.49 90.398C113.907 92.3482 113.457 94.3357 113.143 96.3466L113.339 96.1506C111.328 96.4329 109.29 96.4172 107.263 96.3643C105.237 96.3114 103.159 96.2565 101.113 96.1252C99.9622 96.0526 98.8116 95.9546 97.669 95.8076L97.9414 96.1663C98.2668 94.9537 98.6287 93.7523 99.0272 92.5619L98.7548 92.7696C102.992 92.9088 107.279 92.705 111.42 91.7367C112.574 91.4692 113.713 91.1421 114.833 90.7567C115.178 90.6254 115.031 90.0786 114.684 90.1981Z" fill="black"/>
<path d="M77.5259 113.658C78.0825 113.42 78.7292 113.592 79.0939 114.075C79.4313 114.599 79.349 115.288 78.8979 115.717L78.8195 115.784C78.7392 115.812 78.7372 115.833 78.8195 115.849C78.8313 115.872 78.8078 115.759 78.8078 115.739C78.8239 115.594 78.875 115.455 78.9567 115.333C79.2119 114.87 79.6594 114.544 80.1785 114.442C80.6977 114.341 81.2351 114.475 81.6459 114.808C81.7817 114.889 81.9572 114.844 82.0379 114.708C82.1158 114.571 82.0706 114.397 81.9359 114.316C81.2731 113.813 80.3953 113.695 79.6231 114.004C78.9724 114.273 78.2864 114.939 78.2315 115.68C78.208 116.008 78.3844 116.392 78.7588 116.386C79.1331 116.38 79.4428 115.994 79.6075 115.71C79.983 115.072 79.9414 114.272 79.5016 113.677C78.9933 113.046 78.1362 112.814 77.3789 113.103C77.2317 113.149 77.1458 113.302 77.1829 113.452C77.2275 113.6 77.3817 113.687 77.5318 113.648L77.5259 113.658Z" fill="white"/>
<path d="M102.244 112.627C101.324 112.903 100.899 113.865 100.787 114.747C100.726 115.245 100.766 115.786 101.068 116.204C101.346 116.566 101.769 116.789 102.226 116.813C103.175 116.894 104.051 116.16 104.437 115.337C104.613 114.961 104.633 114.385 104.129 114.257C103.576 114.114 103.202 114.8 102.93 115.159C102.755 115.386 102.508 115.635 102.587 115.943C102.659 116.223 102.931 116.362 103.175 116.48C103.763 116.768 104.372 117.027 104.989 117.264C105.331 117.391 105.478 116.845 105.138 116.719C104.746 116.573 104.359 116.413 103.976 116.241C103.792 116.159 103.608 116.072 103.425 115.982C103.349 115.948 103.274 115.908 103.202 115.865C103.124 115.81 103.139 115.821 103.19 115.749C103.31 115.578 103.441 115.418 103.568 115.253C103.665 115.085 103.795 114.939 103.951 114.824C104.006 114.794 103.984 114.796 103.996 114.824C104.002 114.866 103.997 114.909 103.982 114.949C103.94 115.097 103.869 115.236 103.774 115.357C103.425 115.878 102.857 116.337 102.193 116.247C101.906 116.217 101.648 116.059 101.491 115.817C101.332 115.498 101.284 115.135 101.354 114.785C101.436 114.153 101.73 113.377 102.398 113.177C102.747 113.072 102.594 112.527 102.247 112.631L102.244 112.627Z" fill="white"/>
<path d="M78.4864 118.948L80.909 118.422C81.0509 118.373 81.1303 118.223 81.0903 118.078C81.0504 117.933 80.9049 117.845 80.7581 117.875L78.3355 118.401C78.232 118.422 78.1491 118.5 78.1203 118.602C78.0916 118.703 78.1218 118.813 78.1987 118.885C78.2755 118.958 78.3864 118.982 78.4864 118.948Z" fill="white"/>
<path d="M78.9391 120.857L80.9383 120.635C81.0929 120.632 81.2174 120.508 81.2205 120.353C81.2195 120.197 81.0941 120.071 80.9383 120.069L78.9391 120.296C78.7842 120.299 78.6591 120.424 78.6549 120.578C78.656 120.735 78.7826 120.862 78.9391 120.863V120.857Z" fill="white"/>
<path d="M101.191 110.949C101.647 111.119 102.148 111.122 102.606 110.959C102.746 110.909 102.824 110.76 102.785 110.616C102.746 110.473 102.603 110.384 102.457 110.412C102.359 110.449 102.258 110.477 102.155 110.494C102.138 110.494 102.049 110.524 102.12 110.494C102.098 110.496 102.076 110.496 102.053 110.494C102.002 110.497 101.95 110.497 101.899 110.494C101.846 110.497 101.794 110.497 101.742 110.494C101.742 110.494 101.655 110.494 101.73 110.494C101.701 110.494 101.671 110.494 101.642 110.481C101.54 110.459 101.44 110.43 101.342 110.394C101.192 110.353 101.037 110.441 100.995 110.59C100.958 110.74 101.044 110.893 101.191 110.939V110.949Z" fill="white"/>
<path d="M101.793 108.536C101.94 108.524 102.053 108.401 102.053 108.253C102.053 108.105 101.94 107.982 101.793 107.97C101.645 107.982 101.532 108.105 101.532 108.253C101.532 108.401 101.645 108.524 101.793 108.536Z" fill="white"/>
<path d="M107.428 92.8266C108.297 94.0478 109.277 95.1862 110.356 96.2272C110.619 96.48 111.018 96.0802 110.748 95.8352C109.704 94.8295 108.756 93.7291 107.916 92.5483C107.834 92.4136 107.66 92.3684 107.524 92.4464C107.458 92.4848 107.411 92.5477 107.392 92.6212C107.372 92.6948 107.383 92.7729 107.422 92.8384L107.428 92.8266Z" fill="white"/>
<path d="M31.2092 45.2733C29.9705 46.0573 28.5299 47.0549 28.2045 48.5955C28.0941 48.9734 28.124 49.3785 28.2888 49.7362C28.4676 50.0532 28.829 50.2205 29.1865 50.1517C29.5159 50.0741 29.7203 49.7443 29.6431 49.4147C29.5804 49.1149 29.2649 48.8267 28.9493 48.9816C28.5717 49.1902 28.2519 49.4892 28.0183 49.8518C27.7574 50.2259 27.5863 50.6552 27.5185 51.1062C27.4656 51.4629 28.0124 51.6178 28.0653 51.2571C28.1127 50.9159 28.2287 50.5879 28.4064 50.2928C28.4956 50.1452 28.6008 50.0079 28.72 49.8832C28.8317 49.7656 29.014 49.6695 29.112 49.548C29.2021 49.5062 29.1923 49.4905 29.0826 49.501C29.0826 49.5225 29.1218 49.5578 29.0963 49.5892C29.0277 49.6676 28.8631 49.5578 28.818 49.5049C28.622 49.2756 28.7259 48.8365 28.7964 48.5798C29.159 47.2803 30.433 46.4512 31.5012 45.7652C31.807 45.5692 31.5247 45.0792 31.2151 45.2772L31.2092 45.2733Z" fill="white"/>
<path d="M20.9075 46.6002L21.6915 45.6515C21.7423 45.5985 21.7723 45.5289 21.7757 45.4555C21.7734 45.3419 21.7036 45.2407 21.5983 45.198C21.4929 45.1554 21.3723 45.1796 21.2916 45.2595L20.5076 46.2082C20.4571 46.2614 20.4272 46.3309 20.4233 46.4042C20.4247 46.478 20.455 46.5484 20.5076 46.6002C20.6178 46.7037 20.7895 46.7037 20.8996 46.6002H20.9075Z" fill="white"/>
<path d="M24.3786 43.4406C24.3904 43.3935 24.4061 43.3484 24.4218 43.3034C24.4374 43.2583 24.4394 43.2583 24.4472 43.2348C24.4257 43.2955 24.4472 43.223 24.457 43.2152C24.495 43.1311 24.5389 43.0499 24.5884 42.9721C24.6138 42.931 24.6413 42.8918 24.6687 42.8526C24.6962 42.8134 24.702 42.8134 24.6687 42.8526L24.7138 42.7957C24.7752 42.7235 24.8406 42.6548 24.9098 42.5899L25.0196 42.4978L25.0803 42.4566C25.1564 42.4054 25.2356 42.3589 25.3175 42.3175L25.3822 42.2881C25.4547 42.2528 25.3292 42.3077 25.4037 42.2783C25.4488 42.2606 25.4939 42.243 25.539 42.2293C25.6306 42.2002 25.7243 42.1779 25.8192 42.1626C25.9685 42.119 26.0556 41.964 26.0152 41.8138C25.969 41.6665 25.8162 41.5806 25.6664 41.6178C24.778 41.7865 24.0594 42.4392 23.8063 43.3073C23.7671 43.4574 23.8537 43.6116 24.0023 43.6562C24.1521 43.6933 24.305 43.6074 24.3512 43.4602L24.3786 43.4406Z" fill="white"/>
<path d="M94.4546 68.1602C95.9504 68.06 97.4408 68.4227 98.7234 69.199C98.8576 69.2672 99.0218 69.219 99.0977 69.089C99.1736 68.959 99.135 68.7923 99.0096 68.709C97.6408 67.8809 96.051 67.4924 94.4546 67.5957C94.0939 67.6192 94.09 68.1837 94.4546 68.1602Z" fill="white"/>
<path d="M81.2579 62.1173C80.8641 62.0776 80.5024 62.3377 80.4147 62.7237C80.3271 63.1097 80.5409 63.5005 80.9133 63.6348C81.2856 63.7691 81.6997 63.6048 81.8786 63.2517C82.0575 62.8985 81.9451 62.4675 81.6166 62.2466" fill="black"/>
<path d="M81.2579 61.8332C80.8407 61.809 80.4457 62.0221 80.2367 62.3839C80.0245 62.7441 80.0411 63.1948 80.2792 63.5385C80.5172 63.8822 80.9334 64.0561 81.3452 63.9841C81.757 63.9121 82.0894 63.6073 82.1967 63.2032C82.3147 62.7496 82.137 62.2706 81.7518 62.0037C81.6864 61.9646 81.6081 61.9534 81.5344 61.9726C81.4608 61.9917 81.3978 62.0396 81.3598 62.1056C81.2818 62.2423 81.327 62.4162 81.4617 62.4976C81.4323 62.4682 81.5185 62.5368 81.4617 62.4976C81.4911 62.527 81.4872 62.5192 81.4989 62.5329L81.5283 62.5623C81.5283 62.5623 81.5754 62.6152 81.546 62.5799C81.5166 62.5446 81.5577 62.5976 81.5597 62.6015L81.5832 62.6368C81.5832 62.6485 81.5969 62.6603 81.6028 62.674C81.6087 62.6877 81.6322 62.721 81.6028 62.674C81.6177 62.7059 81.6289 62.7395 81.6361 62.774C81.6403 62.7868 81.6436 62.7999 81.6459 62.8132V62.8367C81.6459 62.7936 81.6459 62.8543 81.6459 62.8622C81.6469 62.8759 81.6469 62.8896 81.6459 62.9033V62.9445C81.6459 62.9543 81.6459 63.0366 81.6459 62.9896C81.6459 62.9425 81.6459 63.0092 81.6459 63.0131C81.6436 63.027 81.6403 63.0408 81.6361 63.0542C81.6361 63.066 81.6361 63.0797 81.6244 63.0934C81.6126 63.1072 81.595 63.1562 81.6244 63.117C81.6538 63.0778 81.6126 63.1366 81.6107 63.1385C81.6087 63.1405 81.5969 63.164 81.5911 63.1758L81.5773 63.1973C81.5989 63.164 81.5597 63.2169 81.5519 63.2248C81.5311 63.2478 81.5089 63.2694 81.4852 63.2894C81.446 63.3247 81.4852 63.2894 81.495 63.2894C81.4819 63.301 81.4674 63.3109 81.4519 63.3188L81.3696 63.3659C81.3127 63.3992 81.4107 63.3522 81.3696 63.3659L81.3108 63.3874L81.2206 63.409C81.154 63.4247 81.2657 63.409 81.2206 63.409H81.1697H81.0873C81.0775 63.409 81.0207 63.3933 81.0619 63.409C81.103 63.4247 81.0383 63.409 81.0285 63.409C80.9979 63.4034 80.9682 63.3935 80.9403 63.3796C80.958 63.3796 80.9952 63.4149 80.9403 63.3796C80.9247 63.3723 80.9096 63.3638 80.8953 63.3541L80.86 63.3306C80.8169 63.3012 80.86 63.3306 80.86 63.3306C80.8255 63.3076 80.7956 63.2783 80.7718 63.2444L80.7443 63.213C80.7443 63.213 80.7757 63.2581 80.7443 63.213C80.713 63.1679 80.7071 63.1542 80.6914 63.1228C80.6857 63.11 80.6791 63.0976 80.6718 63.0856C80.6424 63.0248 80.6855 63.1268 80.6718 63.0856C80.6581 63.0444 80.6483 63.015 80.6405 62.9758C80.6418 62.9628 80.6418 62.9497 80.6405 62.9366C80.6561 62.9562 80.6405 62.9876 80.6405 62.9504C80.6385 62.9158 80.6385 62.8811 80.6405 62.8465C80.6385 62.8328 80.6385 62.819 80.6405 62.8053C80.615 62.8563 80.6405 62.8367 80.6405 62.8053C80.6486 62.7666 80.6597 62.7286 80.6738 62.6916C80.6738 62.7014 80.6483 62.7446 80.6738 62.7014C80.6831 62.6819 80.6935 62.6629 80.7051 62.6446L80.7345 62.5995L80.7228 62.6152L80.7443 62.5897C80.771 62.5608 80.7991 62.5333 80.8286 62.5074C80.8404 62.4956 80.8698 62.48 80.8286 62.5074L80.8815 62.4702L80.9286 62.4427L80.9639 62.4251C80.9227 62.4447 80.9874 62.4251 80.9893 62.4251L81.0521 62.4055H81.0932C81.1559 62.3898 81.0442 62.4055 81.103 62.4055C81.1618 62.4055 81.1893 62.4055 81.2324 62.4055C81.3883 62.4055 81.5146 62.2791 81.5146 62.1232C81.5115 61.9683 81.3873 61.8432 81.2324 61.839L81.2579 61.8332Z" fill="black"/>
<path d="M84.7662 63.3169C84.3726 63.2754 84.0098 63.5338 83.9204 63.9194C83.831 64.3049 84.0429 64.6967 84.4146 64.8328C84.7863 64.9688 85.201 64.8065 85.3817 64.4544C85.5624 64.1023 85.4522 63.6707 85.1249 63.4482" fill="black"/>
<path d="M84.7663 63.0345C84.3497 63.0104 83.9549 63.2226 83.7451 63.5833C83.534 63.9433 83.5509 64.3932 83.7886 64.7363C84.0263 65.0794 84.4415 65.2534 84.8528 65.1822C85.264 65.111 85.5966 64.8076 85.7051 64.4045C85.8243 63.9509 85.6464 63.4712 85.2602 63.205C85.1952 63.1652 85.1169 63.1534 85.0431 63.1722C84.9693 63.1911 84.9062 63.2389 84.8682 63.305C84.791 63.4413 84.8351 63.6143 84.9682 63.697C84.9388 63.6676 85.025 63.7362 84.9682 63.697L85.0054 63.7303L85.0348 63.7597L85.0525 63.7793C85.0231 63.746 85.0642 63.7969 85.0681 63.8009L85.0897 63.8361C85.097 63.8475 85.1035 63.8593 85.1093 63.8714C85.125 63.9008 85.1387 63.9204 85.1093 63.8714C85.1236 63.9036 85.1348 63.9371 85.1426 63.9714C85.1419 63.9844 85.1419 63.9975 85.1426 64.0106C85.1426 64.0106 85.1603 64.0811 85.1426 64.0341C85.125 63.9871 85.1426 64.0517 85.1426 64.0596C85.1416 64.0733 85.1416 64.087 85.1426 64.1007C85.1436 64.1144 85.1436 64.1282 85.1426 64.1419C85.1426 64.1419 85.1426 64.234 85.1426 64.187C85.1426 64.1399 85.1426 64.2066 85.1426 64.2105C85.1426 64.2144 85.1426 64.2379 85.1328 64.2497L85.1211 64.2909C85.1211 64.2909 85.0897 64.3536 85.1113 64.3144C85.1328 64.2752 85.0995 64.334 85.0995 64.3359L85.0779 64.3732C85.0779 64.3732 85.0407 64.4339 85.0642 64.3947C85.0877 64.3555 85.0466 64.4143 85.0407 64.4222C85.0348 64.43 84.9956 64.4653 84.9741 64.4869C84.9525 64.5084 84.9741 64.4869 84.9741 64.4869C84.9613 64.4988 84.9468 64.5088 84.9309 64.5163L84.8506 64.5613C84.7918 64.5947 84.8898 64.5496 84.8506 64.5613L84.7918 64.5809C84.7622 64.5906 84.7321 64.5985 84.7016 64.6045C84.635 64.6201 84.7487 64.6045 84.7016 64.6045H84.6487H84.5664C84.5664 64.6045 84.4997 64.5888 84.5429 64.6045L84.5095 64.5947C84.4782 64.5903 84.4478 64.5811 84.4194 64.5672C84.439 64.5672 84.4743 64.6025 84.4194 64.5672L84.3743 64.5417L84.341 64.5182C84.2959 64.4888 84.341 64.5182 84.341 64.5182C84.3055 64.4958 84.2748 64.4664 84.2508 64.432L84.2234 64.4006C84.2234 64.4006 84.2547 64.4457 84.2234 64.4006C84.192 64.3555 84.1861 64.3438 84.1685 64.3124L84.1509 64.2752C84.1215 64.2144 84.1626 64.3163 84.1509 64.2752C84.1391 64.234 84.1273 64.2027 84.1195 64.1654C84.1206 64.1517 84.1206 64.138 84.1195 64.1243C84.1352 64.1439 84.1195 64.1752 84.1195 64.138C84.1195 64.1007 84.1195 64.0694 84.1195 64.0361C84.1185 64.0224 84.1185 64.0086 84.1195 63.9949C84.094 64.0439 84.1195 64.0263 84.1195 63.9949C84.1279 63.9569 84.139 63.9196 84.1528 63.8832C84.1273 63.9361 84.1528 63.893 84.1528 63.8832C84.1783 63.8303 84.1744 63.8459 84.1842 63.8283L84.2155 63.7832C84.2273 63.7656 84.2155 63.7715 84.2038 63.7969L84.2234 63.7734C84.2508 63.744 84.2802 63.7166 84.3077 63.6891C84.3351 63.6617 84.3508 63.6637 84.3077 63.6891L84.3625 63.6519L84.4076 63.6245L84.4429 63.6068L84.4684 63.597L84.5311 63.5794H84.5723C84.5233 63.5794 84.635 63.5637 84.5723 63.5794C84.6213 63.5794 84.6585 63.5794 84.7016 63.5794C84.8586 63.5794 84.9858 63.4521 84.9858 63.2952C84.9817 63.1403 84.8565 63.016 84.7016 63.0129L84.7663 63.0345Z" fill="black"/>
<path d="M82.0458 65.906C81.6522 65.8645 81.2894 66.123 81.2 66.5085C81.1105 66.8941 81.3225 67.2858 81.6941 67.4219C82.0658 67.5579 82.4806 67.3957 82.6612 67.0435C82.8419 66.6914 82.7318 66.2598 82.4044 66.0373" fill="black"/>
<path d="M82.0458 65.6239C81.6292 65.5998 81.2345 65.812 81.0247 66.1727C80.8259 66.5312 80.851 66.972 81.0894 67.3056C81.3278 67.6528 81.7506 67.8241 82.1634 67.7407C82.5574 67.6657 82.8769 67.3779 82.9925 66.9939C83.1102 66.5398 82.9327 66.0604 82.5476 65.7924C82.4821 65.7539 82.404 65.743 82.3305 65.7621C82.2569 65.7812 82.194 65.8288 82.1556 65.8944C82.0787 66.0312 82.1237 66.2043 82.2575 66.2864C82.2262 66.257 82.3124 66.3236 82.2575 66.2864L82.2967 66.3216L82.3261 66.351L82.3438 66.3706C82.3144 66.3373 82.3555 66.3883 82.3575 66.3922L82.381 66.4275L82.4006 66.4628C82.4163 66.4922 82.428 66.5118 82.4006 66.4628C82.4155 66.494 82.4267 66.5269 82.4339 66.5608C82.4381 66.5742 82.4414 66.588 82.4437 66.6019C82.4437 66.6019 82.4614 66.6725 82.4437 66.6254C82.4261 66.5784 82.4437 66.6431 82.4437 66.649C82.4447 66.6633 82.4447 66.6777 82.4437 66.6921V66.7332C82.4437 66.7332 82.4437 66.8234 82.4437 66.7783C82.4437 66.7332 82.4437 66.796 82.4437 66.8018C82.4444 66.8149 82.4444 66.828 82.4437 66.841L82.432 66.8802C82.432 66.8802 82.4026 66.943 82.432 66.9057C82.4614 66.8685 82.4202 66.9234 82.4182 66.9273C82.4118 66.9395 82.4046 66.9512 82.3967 66.9626C82.3967 66.9626 82.3594 67.0233 82.3849 66.9861C82.4104 66.9488 82.3673 67.0057 82.3594 67.0116C82.3392 67.0351 82.3169 67.0567 82.2928 67.0762C82.2536 67.1115 82.2928 67.0762 82.2928 67.0762C82.2792 67.0872 82.2648 67.097 82.2497 67.1056L82.1674 67.1507C82.1105 67.184 82.2085 67.137 82.1674 67.1507L82.1086 67.1723L82.0164 67.1958C81.9518 67.2115 82.0635 67.1958 82.0164 67.1958H81.9655C81.938 67.1958 81.9106 67.1958 81.8832 67.1958C81.8557 67.1958 81.8146 67.1801 81.8577 67.1958L81.8244 67.186C81.7935 67.1813 81.7637 67.1713 81.7362 67.1566C81.7538 67.1566 81.7891 67.1919 81.7362 67.1566C81.7205 67.1493 81.7054 67.1408 81.6911 67.1311L81.6558 67.1096C81.6107 67.0802 81.6558 67.1096 81.6558 67.1096C81.6264 67.0998 81.5872 67.0468 81.5656 67.0233C81.5441 66.9998 81.5382 66.9939 81.5402 66.992C81.5421 66.99 81.5696 67.039 81.5402 66.992C81.5108 66.9449 81.5029 66.9332 81.4872 66.9038L81.4676 66.8665C81.4382 66.8058 81.4794 66.9077 81.4676 66.8665C81.4559 66.8254 81.4441 66.794 81.4343 66.7568C81.4356 66.7431 81.4356 66.7293 81.4343 66.7156C81.452 66.7352 81.4343 66.7666 81.4343 66.7293C81.4324 66.6947 81.4324 66.66 81.4343 66.6254C81.4325 66.6118 81.4325 66.5979 81.4343 66.5843C81.4088 66.6352 81.4343 66.6156 81.4343 66.5843C81.4437 66.5463 81.4555 66.509 81.4696 66.4726C81.4441 66.5255 81.4696 66.4726 81.4696 66.4726L81.501 66.4157L81.5304 66.3726C81.5421 66.355 81.5304 66.3608 81.5186 66.3863L81.5402 66.3608C81.5668 66.3319 81.5949 66.3045 81.6244 66.2785L81.6774 66.2432L81.7244 66.2158C81.7244 66.2158 81.7969 66.1805 81.7577 66.1982C81.7185 66.2158 81.7812 66.1982 81.7852 66.1884L81.8459 66.1707L81.889 66.1609C81.84 66.1609 81.9518 66.1472 81.889 66.1609C81.9321 66.158 81.9753 66.158 82.0184 66.1609C82.1657 66.1487 82.279 66.0255 82.279 65.8777C82.279 65.7299 82.1657 65.6067 82.0184 65.5945L82.0458 65.6239Z" fill="black"/>
<path d="M81.2794 59.9281C84.2521 59.0146 87.3784 58.7093 90.4718 59.0304C90.8344 59.0696 90.8304 58.5032 90.4718 58.4659C87.3281 58.1408 84.1512 58.4521 81.1304 59.3813C80.7835 59.4891 80.9344 60.0359 81.2794 59.9281Z" fill="white"/>
<path d="M91.4713 59.4126C91.6186 59.4004 91.7319 59.2772 91.7319 59.1294C91.7319 58.9816 91.6186 58.8585 91.4713 58.8462C91.324 58.8585 91.2107 58.9816 91.2107 59.1294C91.2107 59.2772 91.324 59.4004 91.4713 59.4126Z" fill="white"/>
<path d="M92.52 59.4636C92.6759 59.4636 92.8023 59.3373 92.8023 59.1814C92.8023 59.0255 92.6759 58.8992 92.52 58.8992C92.3642 58.8992 92.2378 59.0255 92.2378 59.1814C92.2378 59.3373 92.3642 59.4636 92.52 59.4636Z" fill="white"/>
<path d="M92.6298 60.4651C92.7771 60.4529 92.8904 60.3297 92.8904 60.1819C92.8904 60.0341 92.7771 59.9109 92.6298 59.8987C92.4825 59.9109 92.3691 60.0341 92.3691 60.1819C92.3691 60.3297 92.4825 60.4529 92.6298 60.4651Z" fill="white"/>
<path d="M125.232 60.7336C126.295 62.6936 127.273 64.7045 128.639 66.4744C129.3 67.3587 130.089 68.1401 130.979 68.7931C131.536 69.1851 132.12 69.5516 132.694 69.9201C133.086 70.1749 133.478 70.4258 133.89 70.6629C134.144 70.8343 134.42 70.9701 134.711 71.0667C135.064 71.1529 135.215 70.6081 134.86 70.5199C134.785 70.5023 134.713 70.4732 134.646 70.4336C134.501 70.3611 134.358 70.2788 134.217 70.1965C133.878 70.0005 133.547 69.7927 133.217 69.583C132.663 69.2321 132.118 68.8676 131.569 68.5089C129.742 67.3153 128.488 65.4454 127.42 63.5834C126.832 62.5525 126.289 61.4921 125.72 60.4474C125.546 60.1279 125.058 60.4141 125.232 60.7336Z" fill="black"/>
<path d="M120.671 41.8079C121.276 41.7012 121.887 41.6305 122.5 41.5962C122.925 41.5962 123.355 41.6452 123.778 41.6864C124.94 41.7961 126.101 41.9392 127.265 42.0255C127.628 42.0509 127.626 41.4865 127.265 41.459C126.101 41.3728 124.94 41.2297 123.778 41.1199C123.359 41.0807 122.935 41.0317 122.514 41.0298C121.896 41.0632 121.281 41.1339 120.671 41.2415C120.313 41.2846 120.309 41.851 120.671 41.8079Z" fill="black"/>
<path d="M81.2774 50.8749C83.0241 49.5611 85.2318 49.018 87.3887 49.3716C87.7454 49.4324 87.8983 48.8875 87.5396 48.8248C85.2343 48.4323 82.8687 48.9987 80.9912 50.3928C80.7031 50.6084 80.9912 51.1003 81.2774 50.8828V50.8749Z" fill="black"/>
<path d="M100.499 49.0266C101.886 48.7577 103.308 48.7193 104.707 48.913C105.343 48.9926 105.969 49.133 106.577 49.3324C107.093 49.5088 107.59 49.7832 107.877 50.2614C107.96 50.3868 108.127 50.4254 108.257 50.3495C108.387 50.2736 108.435 50.1095 108.367 49.9753C107.683 48.8385 106.156 48.5602 104.948 48.3798C103.42 48.1529 101.865 48.1873 100.348 48.4818C99.9915 48.5504 100.142 49.0972 100.499 49.0266Z" fill="black"/>
<path d="M67.1635 47.2566C64.4038 50.275 61.7127 53.3934 59.6312 56.9155C57.6712 60.2475 56.2541 63.9833 56.0228 67.8406C57.0432 67.6179 58.0411 67.3023 59.004 66.8978C60.0394 66.4591 61.04 65.9421 61.9969 65.3514C62.6966 61.2354 64.2215 57.1037 65.8542 53.2582C67.4516 49.4969 69.2685 45.6396 72.1262 42.7878L71.9596 42.8251C70.1603 44.052 68.6354 45.6475 67.1635 47.2566Z" fill="black"/>
<path d="M46.9696 60.8746C47.8189 58.9813 49.1757 57.36 50.8896 56.1902C51.2953 55.9158 51.8167 55.5081 52.3361 55.5747C52.5392 55.587 52.7216 55.7034 52.8182 55.8825C52.8653 56.0099 52.8025 56.2451 52.6497 56.2745C52.4968 56.3039 52.3851 56.0785 52.3811 55.9452C52.3811 55.6845 52.5771 55.4493 52.7359 55.267C53.0923 54.8655 53.4733 54.4865 53.8766 54.1322C54.7942 53.3092 55.8412 52.643 56.9754 52.1604C57.3066 52.0232 57.1616 51.4744 56.8245 51.6155C55.5605 52.1476 54.3966 52.8913 53.3827 53.8147C53.1377 54.0361 52.9005 54.2674 52.6712 54.5046C52.4159 54.7456 52.1908 55.0167 52.0009 55.3121C51.7285 55.7884 51.7441 56.4999 52.3008 56.7723C52.828 57.031 53.3709 56.5567 53.4003 56.0236C53.4317 55.4238 52.8515 55.0318 52.3067 55.0005C51.6324 54.9593 51.0013 55.4179 50.476 55.7845C48.7348 56.9923 47.3548 58.6508 46.4835 60.5825C46.3345 60.9138 46.8226 61.2019 46.9715 60.8687L46.9696 60.8746Z" fill="white"/>
<path d="M59.1999 50.8865L59.2705 50.8159C59.2971 50.791 59.3173 50.7601 59.3293 50.7257C59.3468 50.6919 59.3549 50.654 59.3528 50.616C59.3551 50.5779 59.347 50.54 59.3293 50.5062C59.3178 50.4716 59.2975 50.4406 59.2705 50.4161L59.2137 50.371C59.1699 50.3464 59.1207 50.333 59.0706 50.3318L58.9941 50.3435C58.9471 50.3559 58.9044 50.381 58.8707 50.4161L58.8001 50.4866C58.7731 50.5111 58.7528 50.5422 58.7413 50.5768C58.7236 50.6106 58.7155 50.6485 58.7178 50.6865C58.7151 50.724 58.7233 50.7614 58.7413 50.7943C58.7528 50.8295 58.773 50.8612 58.8001 50.8865L58.8569 50.9296C58.9004 50.955 58.9497 50.9685 59 50.9688L59.0745 50.959C59.122 50.9463 59.1653 50.9213 59.1999 50.8865Z" fill="white"/>
<path d="M61.0365 49.5655C61.1838 49.5532 61.2971 49.4301 61.2971 49.2822C61.2971 49.1344 61.1838 49.0113 61.0365 48.999C60.8892 49.0113 60.7759 49.1344 60.7759 49.2822C60.7759 49.4301 60.8892 49.5532 61.0365 49.5655Z" fill="white"/>
<path d="M60.3349 51.5999C60.4907 51.5999 60.6171 51.4735 60.6171 51.3176C60.6171 51.1618 60.4907 51.0354 60.3349 51.0354C60.179 51.0354 60.0526 51.1618 60.0526 51.3176C60.0526 51.4735 60.179 51.5999 60.3349 51.5999Z" fill="white"/>
<path d="M126.279 57.039L127.825 60.712C128.261 61.745 128.715 62.8073 129.519 63.6128C129.888 63.9904 130.328 64.2903 130.814 64.4948C131.234 64.6693 131.928 64.8869 132.304 64.5282C132.872 63.9755 132.586 62.1507 131.544 62.476C130.956 62.6603 131.075 63.411 131.242 63.8481C131.45 64.3988 131.793 64.8887 132.239 65.273C132.514 65.5101 132.916 65.1103 132.631 64.881C132.337 64.6313 132.092 64.328 131.91 63.9872C131.84 63.8559 131.475 63.1209 131.714 63.0209C131.875 62.9562 131.965 63.26 131.981 63.3561C132.007 63.5361 132.007 63.719 131.981 63.899C131.949 64.1166 131.877 64.1734 131.651 64.1499C131.45 64.1248 131.252 64.0741 131.063 63.999C129.411 63.3679 128.749 61.4823 128.123 59.9927L126.82 56.8881C126.681 56.5588 126.132 56.7038 126.273 57.039H126.279Z" fill="white"/>
<path d="M134.535 67.3859L134.64 67.28C134.668 67.2553 134.687 67.2233 134.697 67.1879C134.716 67.1552 134.725 67.1177 134.723 67.0801C134.724 67.0419 134.715 67.004 134.697 66.9703C134.687 66.9356 134.667 66.9044 134.64 66.8802L134.582 66.8351C134.538 66.8103 134.489 66.7969 134.438 66.7959L134.364 66.8077C134.316 66.8201 134.273 66.8451 134.239 66.8802L134.135 66.9841C134.107 67.0091 134.087 67.0409 134.076 67.0762C134.042 67.1447 134.042 67.2252 134.076 67.2937C134.086 67.3294 134.107 67.3613 134.135 67.3859L134.192 67.429C134.235 67.4547 134.284 67.4682 134.335 67.4682L134.409 67.4584C134.457 67.4457 134.5 67.4207 134.535 67.3859Z" fill="white"/>
<path d="M135.503 65.5101L135.397 65.6159C135.37 65.6408 135.35 65.6717 135.338 65.7061C135.321 65.7399 135.313 65.7778 135.315 65.8158C135.312 65.8539 135.32 65.8918 135.338 65.9256C135.35 65.9602 135.37 65.9912 135.397 66.0157L135.456 66.0608C135.498 66.0858 135.547 66.0987 135.597 66.0981L135.673 66.0883C135.721 66.0751 135.764 66.0501 135.799 66.0157L135.903 65.9099C135.93 65.8854 135.95 65.8544 135.961 65.8197C135.979 65.7858 135.988 65.7481 135.987 65.71C135.988 65.6725 135.979 65.6354 135.961 65.6022C135.95 65.567 135.93 65.5353 135.903 65.5101L135.846 65.4669C135.802 65.4413 135.753 65.4277 135.703 65.4277L135.628 65.4375C135.581 65.4502 135.537 65.4752 135.503 65.5101Z" fill="white"/>
<path d="M135.808 68.6265C135.956 68.6142 136.069 68.4911 136.069 68.3433C136.069 68.1955 135.956 68.0723 135.808 68.0601C135.661 68.0723 135.548 68.1955 135.548 68.3433C135.548 68.4911 135.661 68.6142 135.808 68.6265Z" fill="white"/>
<path d="M137.853 68.6206C139.301 69.7159 141.05 70.3405 142.865 70.4101C143.229 70.4238 143.229 69.8574 142.865 69.8436C141.15 69.7711 139.5 69.173 138.137 68.1306C137.849 67.9111 137.567 68.403 137.853 68.6206Z" fill="white"/>
<path d="M13.3674 14.1562C12.1773 16.4477 11.6711 19.0331 11.9092 21.6042C12.1365 23.9562 13.1107 26.4631 15.3921 27.4999C16.3981 27.9894 17.564 28.0314 18.6026 27.6156C19.612 27.1804 20.3411 26.1965 20.2764 25.0676C20.2157 23.9994 19.2964 22.9116 18.1459 23.3036C16.9954 23.6956 16.6661 24.946 16.7876 26.0358C17.0601 28.5681 18.8241 30.6634 20.884 32.0256C21.1898 32.2216 21.472 31.7374 21.1702 31.5375C19.5787 30.487 18.1792 28.9895 17.5951 27.1314C17.3188 26.2592 17.0659 24.9931 17.7382 24.2306C18.0126 23.919 18.4595 23.6956 18.877 23.8269C19.3337 23.9719 19.6159 24.4482 19.6923 24.897C19.857 25.877 19.2023 26.7649 18.3203 27.1216C17.4122 27.4566 16.4047 27.3918 15.5469 26.9433C13.5869 25.975 12.7245 23.8249 12.4952 21.7689C12.2238 19.245 12.701 16.697 13.8672 14.4424C14.0338 14.119 13.5458 13.8328 13.3772 14.1562H13.3674Z" fill="#AFAA96"/>
<path d="M0.204024 32.8233C2.25534 35.4656 4.71462 37.7641 7.48934 39.6323C8.27334 40.1615 9.08348 40.6548 9.91975 41.1121C10.2392 41.2866 10.5254 40.7985 10.2059 40.6221C7.30421 39.0293 4.67543 36.9835 2.41882 34.5618C1.78248 33.8758 1.17749 33.163 0.603864 32.4234C0.380424 32.1353 -0.0174561 32.5391 0.211864 32.8154L0.204024 32.8233Z" fill="#AFAA96"/>
<path d="M153.868 39.2443C157.46 37.7031 160.909 35.8483 164.176 33.7015C165.099 33.0965 166.006 32.4673 166.896 31.814C167.186 31.6023 166.896 31.1103 166.61 31.3259C163.454 33.6328 160.101 35.6575 156.59 37.3765C155.599 37.8612 154.596 38.3186 153.582 38.7485C153.249 38.8915 153.535 39.3796 153.868 39.2365V39.2443Z" fill="#AFAA96"/>
<path d="M130.713 2.58835C129.163 5.98568 127.751 9.43594 126.477 12.9391C126.118 13.9335 125.769 14.9305 125.432 15.9301C125.317 16.277 125.864 16.424 125.979 16.081C127.155 12.5778 128.474 9.12626 129.934 5.72631C130.346 4.76983 130.768 3.81858 131.201 2.87255C131.352 2.54327 130.864 2.25711 130.713 2.58835Z" fill="#AFAA96"/>
<path d="M72.1537 2.52366L71.7323 13.0547C71.7166 13.4193 72.283 13.4193 72.2987 13.0547L72.724 2.52366C72.7397 2.1591 72.1733 2.16106 72.1595 2.52366H72.1537Z" fill="#AFAA96"/>
<path d="M186.328 40.3694C185.492 43.5298 183.703 46.3561 181.204 48.4642C179.968 49.5185 178.577 50.3747 177.078 51.0024C175.736 51.559 174.187 52.0647 172.723 51.7276C172.092 51.5806 171.512 51.2533 171.212 50.6574C170.883 50.0028 171.067 49.207 171.496 48.6445C172.582 47.2235 174.685 47.7664 175.681 48.9934C176.771 50.336 176.857 52.2921 176.422 53.8934C175.987 55.4947 175.001 56.9275 173.788 58.0604C170.971 60.7122 167.029 61.4962 163.337 62.049L161.869 62.2567C161.51 62.3057 161.663 62.8447 162.02 62.8016C166.049 62.245 170.377 61.6256 173.627 58.962C175.046 57.8277 176.136 56.3341 176.782 54.6362C177.396 52.933 177.443 50.9122 176.555 49.2894C175.697 47.7214 173.691 46.6708 171.975 47.5254C170.52 48.2466 169.944 50.3046 171.136 51.5179C172.216 52.6155 174.076 52.5214 175.448 52.1588C177.139 51.6971 178.739 50.9515 180.181 49.9538C183.103 47.9599 185.316 45.0888 186.5 41.7551C186.641 41.3487 186.765 40.9371 186.871 40.5203C186.912 40.3699 186.823 40.2145 186.673 40.1734C186.522 40.1323 186.367 40.2209 186.326 40.3714L186.328 40.3694Z" fill="#AFAA96"/>
<path d="M161.512 78.6167C165.066 78.8391 168.633 78.552 172.106 77.7641C173.103 77.5367 174.089 77.2676 175.065 76.9566C175.41 76.8468 175.261 76.3 174.914 76.4117C171.552 77.4787 168.053 78.055 164.526 78.1228C163.519 78.1424 162.513 78.1202 161.508 78.0561C161.143 78.0326 161.145 78.5991 161.508 78.6226L161.512 78.6167Z" fill="#AFAA96"/>
<path d="M155.191 91.4429C157.48 91.729 159.803 91.5429 162.018 90.8961C162.367 90.7942 162.214 90.2473 161.869 90.3512C159.702 90.9808 157.43 91.1602 155.191 90.8784C154.83 90.8314 154.834 91.3978 155.191 91.4429Z" fill="#AFAA96"/>
<path d="M65.2604 106.805C63.9944 112.266 63.5374 117.882 63.9041 123.475C64.006 125.031 64.1719 126.58 64.4019 128.122C64.4548 128.483 65.0017 128.33 64.9487 127.973C64.1461 122.518 64.1461 116.975 64.9487 111.519C65.1735 109.988 65.4616 108.467 65.8131 106.956C65.8954 106.601 65.3505 106.451 65.2682 106.805H65.2604Z" fill="#AFAA96"/>
<path d="M57.7026 113.207C57.3972 116.604 57.5018 120.026 58.0143 123.399C58.0692 123.757 58.614 123.605 58.5611 123.248C58.0603 119.926 57.9622 116.556 58.2691 113.211C58.3004 112.848 57.736 112.85 57.7026 113.211V113.207Z" fill="#AFAA96"/>
<path d="M120.862 118.581L121.842 128.659L122.124 131.533C122.159 131.891 122.726 131.895 122.69 131.533L121.7 121.452L121.418 118.581C121.383 118.22 120.817 118.218 120.852 118.581H120.862Z" fill="#AFAA96"/>
<path d="M127.837 121.737L128.47 127.421C128.51 127.779 129.076 127.783 129.035 127.421L128.404 121.737C128.365 121.38 127.798 121.376 127.837 121.737Z" fill="#AFAA96"/>
</svg>
